<svg width="90" height="90" viewBox="0 0 90 90" fill="none" xmlns="http://www.w3.org/2000/svg">
<g filter="url(#filter0_d_101_77)">
<path d="M19.2391 53.2138V51.4897C19.2391 49.7656 17.5217 49.7656 17.5217 49.7656H7.21739C5.5 49.7656 5.5 51.4897 5.5 51.4897V75.6266C5.5 77.3506 7.21739 77.3506 7.21739 77.3506H17.5217C19.2391 77.3506 19.2391 75.6266 19.2391 75.6266V72.075M19.2391 53.2138V72.075M19.2391 53.2138H29.5435C35.389 53.4246 40.927 55.8955 45 60.11H55.3043C57.2013 60.11 58.7391 61.6538 58.7391 63.5581C58.7391 65.4625 57.2013 67.0063 55.3043 67.0063H36.413M19.2391 72.075C56.0943 84.4193 42.4926 84.5227 84.5 63.4547C82.1328 60.2395 78.0111 58.8602 74.1957 60.0066L58.9796 65.1787M27.3109 41.4557C20.6226 28.0667 25.7993 11.7663 38.973 4.73428C52.1466 -2.29775 68.503 2.50842 75.8204 15.5616C83.1377 28.6147 78.742 45.1446 65.9178 52.8" stroke="#FB6762" stroke-width="3" stroke-linecap="round" stroke-linejoin="round"/>
<path d="M32.7975 38.3158L32.5 38.2379C32.6056 37.6174 33.2991 37.4215 33.8254 37.7184C34.1106 37.1888 33.4013 36.6895 33.6823 36.1495C34.0422 35.4565 34.851 35.4918 35.5295 35.3811C35.6584 35.3601 35.6133 35.0603 35.7888 35.1617C35.9176 35.236 36.2103 35.3013 36.2122 35.0831C36.2159 34.6476 36.8091 34.1061 36.4492 33.8226C37.0943 33.806 37.2134 33.0087 37.4035 32.5859C37.5538 32.2518 37.8472 32.0206 38.1533 31.8225C37.7724 31.5238 38.2244 31.4787 38.3427 31.1731C38.0771 31.1833 37.7378 31.3936 37.6394 31.0173C37.8475 30.9654 38.0001 30.8185 37.9911 30.6017C37.7863 30.5328 37.3708 31.0588 37.3283 30.6537C37.284 30.2287 37.5365 30.1443 37.8829 29.978C37.3392 29.983 37.5876 29.2882 37.662 29.0025C37.8074 28.4415 37.6796 27.6897 37.6233 27.1182C37.5804 26.6857 37.3805 26.273 37.3494 25.8419C37.3325 25.6059 38.1184 25.5132 37.985 24.9623C37.9054 24.6326 37.1153 23.8753 37.6398 23.6845C38.1113 23.5131 37.7067 22.5524 37.5019 22.3331C37.089 21.8904 37.0383 21.2285 36.5924 20.8554C36.299 20.6101 36.592 20.3009 36.7625 20.0765C36.9684 19.8063 36.7705 19.4539 37.0169 19.2244C37.1525 19.3785 37.2517 19.5516 37.3144 19.7439C37.8915 19.3561 38.7124 18.5985 38.4456 17.846C38.1721 17.075 37.662 16.9116 38.153 16.185C38.4321 16.5317 38.7357 17.005 38.9765 17.3903C39.2248 17.7879 39.8345 17.9091 39.289 18.3929C40.0216 19.2003 39.6621 16.8849 39.5584 16.6371C39.4096 16.2799 41.1239 15.4567 41.3429 15.1681C41.6183 14.8048 41.8152 14.1951 42.2754 14.0035C42.5361 13.8953 43.1538 13.957 43.3003 13.676C43.5088 13.2766 43.1049 13.1323 43.1898 12.8863C43.3405 12.4486 43.4032 11.8989 43.6711 11.51C43.2732 11.471 43.381 11.3444 43.6512 11.2116C43.898 11.0904 43.8026 10.7643 43.7958 10.5608C43.78 10.0832 44.6178 9.94931 44.6178 9.78228C44.6178 9.53227 45.6382 8.56616 45.876 8.57229C46.3217 8.58321 46.7019 8.94326 47.1393 8.98627C47.1625 8.98567 47.1875 8.98696 47.2146 8.99041C47.1893 8.99014 47.1642 8.98872 47.1393 8.98627C46.8236 8.99442 46.8494 9.35305 46.5113 9.35405C46.787 10.3357 47.3904 9.02937 47.5287 8.67547C47.8731 7.79196 48.2796 7.85546 49.2485 8.01059C50.5706 8.22235 50.9914 7.39693 52.0339 6.79699C52.6072 6.4669 54.2749 6.07403 53.7605 5.12054C53.9796 5.05777 54.5991 4.86801 54.2474 5.30237C54.6532 5.24284 54.3977 4.85575 54.8425 4.66166C55.3783 4.42824 55.849 4.42789 56.3066 4.79513C57.8676 6.04806 54.507 6.55565 54.0036 7.17254C53.7346 7.50192 53.6328 7.98281 53.3142 8.26889C53.093 8.46767 52.733 8.42943 52.5358 8.6448C52.1642 9.05029 51.7747 9.66935 51.5357 10.1557C51.1792 10.8804 51.1642 11.6243 50.962 12.388C50.7629 13.1381 50.1953 14.0396 49.6761 14.6276C50.107 14.6396 50.4398 14.4783 50.758 14.212C50.8268 14.3881 50.8539 14.5703 50.8392 14.7579C51.6582 14.5548 51.3836 15.9498 51.7991 16.457C52.3923 17.1815 52.5554 17.6071 52.2082 18.4971C52.0339 18.9445 51.754 19.9016 52.384 20.1285C53.099 20.3857 52.7203 21.2032 53.4559 21.3699C53.7534 21.4373 54.0382 21.2555 54.329 21.2256C54.8035 21.1765 55.2359 21.4821 55.7122 21.4402C56.1364 21.4031 56.4918 21.1137 56.9246 21.1217C57.3093 21.1289 57.5956 21.4857 57.9592 21.5679C58.2263 21.6282 58.4754 21.4128 58.7192 21.6181C59.0401 21.8879 59.2572 22.3814 59.4939 22.7159C59.7133 23.0261 59.9147 23.3411 60.1123 23.6636C60.3678 24.0799 60.4733 23.9634 60.8591 24.0705C61.4208 24.2267 61.9374 23.7739 62.6696 24.056C62.8935 24.1422 63.3868 23.932 63.6287 23.9269C64.1588 23.9154 64.6096 23.9558 65.0747 23.6849C65.6015 23.3782 66.4716 23.9814 66.1951 24.5135C66.0369 24.8176 65.6518 25.0511 65.5827 25.3913C65.4974 25.8101 65.6732 26.0298 65.2588 26.3007C64.7069 26.6619 64.9256 28.1135 64.8711 28.7023C64.8061 29.4018 65.1078 30.1457 65.2446 30.8842C65.3475 31.4405 66.458 32.1753 66.2781 32.7428C66.0564 33.4409 64.6863 33.7133 64.7163 34.5502C65.213 34.192 66.4265 35.503 66.5835 35.9009C66.549 36.0088 66.5579 36.1177 66.5338 36.2281C66.5981 36.4305 66.7608 36.6307 66.7612 36.8475C66.7619 37.2981 67.0347 37.7743 67.1508 38.2206C67.1966 38.3972 67.4402 39.0807 67.4904 39.3542C67.5406 39.6277 67.3885 39.451 67.1621 39.5186C66.7839 39.6315 66.6675 39.4598 66.7605 39.2469C66.9128 38.8981 66.6958 36.6144 65.7491 36.6491C65.3791 36.6626 64.3752 38.4998 64.0934 37.4868C63.9883 37.1098 63.4833 36.9381 63.5389 37.4855C63.6017 38.1005 62.7879 37.8754 62.3521 37.8754H60.3929C59.9609 37.8754 59.4943 37.6312 59.0694 37.8112C58.4345 38.0796 58.9398 39.4483 58.8748 39.9534C59.3891 39.6197 60.5954 39.909 60.8269 40.4541C60.9125 40.6558 60.961 41.3348 60.5605 41.2998C60.3129 41.2781 60.163 40.9621 59.8963 41.0079C59.3076 41.1089 58.2782 41.2644 58.235 41.9242L58.235 41.9244C58.1824 42.7282 58.1088 43.8529 58.8316 44.3785C59.1964 44.6436 59.622 44.8727 59.6032 45.3742C59.5852 45.8554 59.8403 46.0398 60.036 46.446C60.4805 47.3677 59.9049 48.6286 59.7693 49.5713C59.4432 51.8408 59.4962 54.3095 58.7662 56.5004C58.5908 56.083 58.2462 55.7813 57.9356 55.4505C57.5817 55.0738 57.1338 55.4498 56.7242 55.2261C56.3444 55.0186 57.3012 53.4829 57.4334 53.2664C57.6915 52.845 58.4655 52.0172 58.0722 51.6128C57.902 51.4382 57.7282 50.978 57.4532 51.0706C56.9638 51.2354 56.4076 50.4852 56.2848 50.3877C55.8152 50.0148 55.4181 50.3897 54.9223 50.622C54.4498 50.8433 54.1372 50.2469 53.7032 50.177C53.4385 50.1343 52.6872 51.2534 51.8063 50.9971C51.4979 50.9073 51.2866 50.9097 50.9038 50.9573C50.3756 51.0237 50.0967 50.9715 49.6812 50.6617C49.357 50.4196 49.6979 49.7758 49.5814 49.4078C49.4225 48.9057 48.5937 49.178 48.5009 48.6741C48.4365 48.3244 48.258 47.9269 48.1099 47.597L48.0982 47.571C47.9404 47.2192 47.4643 47.3699 47.2385 47.06C46.9939 46.7242 46.837 46.6293 46.5098 46.5236C46.0935 46.3894 45.8489 45.8496 45.8173 45.4888C45.7576 44.8012 44.4473 43.7006 43.7804 43.513C43.6519 43.4766 43.5174 43.3337 43.4036 43.5075L43.3986 43.5151C43.2804 43.6955 43.2798 43.6965 43.0208 43.5834C42.6297 43.4124 42.0282 43.21 41.6987 42.9625C41.4429 42.7702 40.2572 41.3338 40.1167 42.3566C40.0439 42.888 37.9573 42.2107 37.5241 42.1363C36.8215 42.0159 37.3385 41.4451 36.8208 41.2327C36.3666 41.0461 36.5676 40.6745 35.9826 40.6677C35.5228 40.6626 34.6141 40.1728 34.2741 39.9029C33.7019 39.4498 33.2378 38.8934 32.7975 38.3158Z" fill="#E45752"/>
</g>
<defs>
<filter id="filter0_d_101_77" x="0" y="0" width="90" height="90.0002" filterUnits="userSpaceOnUse" color-interpolation-filters="sRGB">
<feFlood flood-opacity="0" result="BackgroundImageFix"/>
<feColorMatrix in="SourceAlpha" type="matrix" values="0 0 0 0 0 0 0 0 0 0 0 0 0 0 0 0 0 0 127 0" result="hardAlpha"/>
<feOffset dy="4"/>
<feGaussianBlur stdDeviation="2"/>
<feComposite in2="hardAlpha" operator="out"/>
<feColorMatrix type="matrix" values="0 0 0 0 0 0 0 0 0 0 0 0 0 0 0 0 0 0 0.25 0"/>
<feBlend mode="normal" in2="BackgroundImageFix" result="effect1_dropShadow_101_77"/>
<feBlend mode="normal" in="SourceGraphic" in2="effect1_dropShadow_101_77" result="shape"/>
</filter>
</defs>
</svg>
