<svg width="298" height="145" viewBox="0 0 298 145" fill="none" xmlns="http://www.w3.org/2000/svg">
<g clip-path="url(#clip0_101_63)">
<path d="M178 87.8473C172.209 88.5932 166.403 86.5807 162.2 82.3702C159.171 85.8539 154.866 87.8417 150.35 87.8417C145.834 87.8417 141.529 85.8539 138.5 82.3702C135.471 85.8539 131.166 87.8417 126.65 87.8417C122.134 87.8417 117.829 85.8539 114.8 82.3702C110.597 86.5807 104.791 88.5933 99 87.8473M124.069 68.2173C137.64 64.4344 139.058 46.5352 137.594 37.1913C135.466 23.6263 120.966 15.1586 110.629 24.8568C110.629 10.1197 138.346 2.42252 154.77 16.2212C171.195 30.0162 164.145 60.8524 178 68.2173M107.876 68.2173C115.594 66.063 117.665 57.9203 116.833 52.6112C115.625 44.903 106.114 38.0603 100.239 43.5703C100.239 36.4756 111.542 32.2509 120.671 35.8914C129.74 39.5063 134.111 50.7745 134.111 60.2317" stroke="#4F91FC" stroke-linecap="round" stroke-linejoin="round"/>
<path d="M219.739 79.5746C256.594 91.9189 242.993 92.0224 285 70.9543C282.633 67.7391 278.511 66.3599 274.696 67.5062L259.48 72.6784M219.739 60.7134H230.043C235.889 60.9243 241.427 63.3952 245.5 67.6097H255.804C257.701 67.6097 259.239 69.1534 259.239 71.0578C259.239 72.9621 257.701 74.5059 255.804 74.5059H236.913M227.811 48.9553C221.123 35.5664 226.299 19.2659 239.473 12.2339C252.647 5.20189 269.003 10.0081 276.32 23.0612C283.638 36.1143 279.242 52.6443 266.418 60.2996M207.717 57.2653H218.022C218.022 57.2653 219.739 57.2653 219.739 58.9893V83.1262C219.739 83.1262 219.739 84.8503 218.022 84.8503H207.717C207.717 84.8503 206 84.8503 206 83.1262V58.9893C206 58.9893 206 57.2653 207.717 57.2653Z" stroke="#FB6762" stroke-linecap="round" stroke-linejoin="round"/>
<path d="M25.4763 133.864C22.5643 133.864 20.3403 132.792 18.8043 130.648C17.2683 128.504 16.5003 125.768 16.5003 122.44C16.5003 119.08 17.2203 115.624 18.6603 112.072C20.1323 108.488 22.1483 105.512 24.7083 103.144C27.3003 100.776 30.1643 99.5921 33.3003 99.5921C36.2443 99.5921 38.5003 100.68 40.0683 102.856C41.6683 105.032 42.4683 107.992 42.4683 111.736C42.4683 115.608 41.6523 119.256 40.0203 122.68C38.4203 126.072 36.3083 128.792 33.6843 130.84C31.0603 132.856 28.3243 133.864 25.4763 133.864ZM27.6363 130.168C29.5243 130.168 31.1563 129.336 32.5323 127.672C33.9403 126.008 34.9963 123.864 35.7003 121.24C36.4043 118.616 36.7563 115.896 36.7563 113.08C36.7563 110.008 36.3083 107.608 35.4123 105.88C34.5483 104.152 33.2523 103.288 31.5243 103.288C29.7963 103.288 28.2123 104.088 26.7723 105.688C25.3643 107.256 24.2443 109.384 23.4123 112.072C22.6123 114.728 22.2123 117.608 22.2123 120.712C22.2123 127.016 24.0203 130.168 27.6363 130.168ZM47.5641 110.872C47.0201 110.872 46.7481 110.696 46.7481 110.344C46.7481 110.248 46.8121 110.008 46.9401 109.624C47.1001 109.24 47.2761 108.712 47.4681 108.04C47.8841 106.632 48.2521 104.152 48.5721 100.6L48.6681 99.4961C48.7001 99.1121 49.0041 98.8081 49.5801 98.5841C50.1881 98.3601 50.8921 98.2481 51.6921 98.2481C52.8761 98.2481 53.4361 98.5681 53.3721 99.2081L53.2761 100.648C53.1481 101.64 52.9241 102.76 52.6041 104.008C52.3161 105.224 52.0121 106.232 51.6921 107.032C51.2441 108.184 50.6361 109.112 49.8681 109.816C49.1001 110.52 48.3321 110.872 47.5641 110.872ZM58.7298 133.864C57.0658 133.864 56.2338 132.6 56.2338 130.072C56.2338 129.112 56.3778 127.768 56.6658 126.04L58.1538 117.256C58.2818 116.616 58.3458 116.072 58.3458 115.624C58.3458 115.208 58.2018 115 57.9138 115C57.5938 115 57.2418 115.224 56.8578 115.672C56.5058 116.088 56.0098 116.872 55.3698 118.024C55.2418 118.28 55.0978 118.52 54.9378 118.744C54.7778 118.936 54.6178 119.032 54.4578 119.032C54.1378 119.032 53.9778 118.76 53.9778 118.216C53.9778 117.384 54.3618 116.36 55.1298 115.144C55.8978 113.896 56.8258 112.824 57.9138 111.928C59.0338 111 60.1058 110.536 61.1298 110.536C61.8338 110.536 62.3618 110.76 62.7138 111.208C63.0978 111.624 63.2898 112.232 63.2898 113.032C63.2898 113.224 63.2578 113.544 63.1938 113.992L61.1298 127.768V128.248C61.1298 128.504 61.1618 128.696 61.2258 128.824C61.2898 128.92 61.4178 128.968 61.6098 128.968C62.3458 128.968 63.2098 128.376 64.2018 127.192C65.2258 126.008 66.1698 124.504 67.0338 122.68C67.8978 120.824 68.5058 118.952 68.8578 117.064L69.3378 114.568C69.5618 113.384 70.1538 112.424 71.1138 111.688C72.0738 110.92 73.1298 110.536 74.2818 110.536C74.5378 110.536 74.7138 110.568 74.8098 110.632C74.9378 110.696 75.0018 110.824 75.0018 111.016C75.0018 111.144 74.9218 111.4 74.7618 111.784C74.6018 112.168 74.4258 112.888 74.2338 113.944C73.9458 115.064 73.1298 119.24 71.7858 126.472C71.6258 127.176 71.5458 127.832 71.5458 128.44C71.5458 129.048 71.7378 129.352 72.1218 129.352C72.6338 129.352 73.0658 129.08 73.4178 128.536C73.7698 127.96 74.2818 126.984 74.9538 125.608C75.1138 125.16 75.3058 124.936 75.5298 124.936C75.8178 124.936 75.9618 125.208 75.9618 125.752C75.9618 126.808 75.6098 127.976 74.9058 129.256C74.2338 130.536 73.3538 131.624 72.2658 132.52C71.1778 133.416 70.0898 133.864 69.0018 133.864C67.4978 133.864 66.7458 132.92 66.7458 131.032C66.7458 130.136 66.9058 128.84 67.2258 127.144L67.1298 127.096C65.8818 128.984 64.5058 130.584 63.0018 131.896C61.4978 133.208 60.0738 133.864 58.7298 133.864Z" fill="#EFD80D"/>
<path d="M98.7279 134.484C98.5359 134.484 98.4399 134.292 98.4399 133.908C98.4399 133.172 98.9359 132.34 99.9279 131.412C100.6 130.772 101.064 130.148 101.32 129.54C101.608 128.9 101.88 127.732 102.136 126.036L104.68 110.34C104.776 109.7 105.112 109.076 105.688 108.468C106.264 107.828 106.952 107.3 107.752 106.884C108.552 106.468 109.32 106.26 110.056 106.26C110.568 106.26 110.824 106.42 110.824 106.74C110.824 106.9 110.68 107.252 110.392 107.796C110.136 108.34 109.912 109.3 109.72 110.676L108.52 118.02C109 118.116 109.608 118.164 110.344 118.164C112.616 118.164 114.424 117.46 115.768 116.052C117.112 114.644 117.784 112.788 117.784 110.484C117.784 108.404 117.192 106.868 116.008 105.876C114.824 104.884 113.032 104.388 110.632 104.388C106.696 104.388 103.352 105.684 100.6 108.276C100.472 108.404 100.28 108.596 100.024 108.852C99.7679 109.108 99.5599 109.284 99.3999 109.38C99.2399 109.444 99.0799 109.476 98.9199 109.476C98.7279 109.476 98.5999 109.428 98.5359 109.332C98.4719 109.236 98.4399 109.092 98.4399 108.9C98.4399 108.612 98.5199 108.292 98.6799 107.94C99.1919 106.692 100.04 105.524 101.224 104.436C102.408 103.316 103.912 102.42 105.736 101.748C107.56 101.044 109.608 100.692 111.88 100.692C115.208 100.692 117.864 101.412 119.848 102.852C121.864 104.26 122.872 106.228 122.872 108.756C122.872 110.932 122.216 113.012 120.904 114.996C119.624 116.948 117.848 118.548 115.576 119.796C113.304 121.044 110.792 121.716 108.04 121.812L106.936 128.196C106.904 128.58 106.776 128.964 106.552 129.348C106.36 129.732 106.136 130.052 105.88 130.308V130.356C106.328 130.644 106.968 130.788 107.8 130.788C108.248 130.788 108.696 130.708 109.144 130.548C109.592 130.356 109.88 130.26 110.008 130.26C110.168 130.26 110.264 130.292 110.296 130.356C110.36 130.42 110.392 130.532 110.392 130.692C110.392 130.916 110.328 131.14 110.2 131.364C110.104 131.556 109.976 131.764 109.816 131.988C108.536 133.652 107.288 134.484 106.072 134.484C105.752 134.484 105.368 134.436 104.92 134.34C104.504 134.244 104.232 134.18 104.104 134.148C103.24 133.86 102.472 133.716 101.8 133.716C101.096 133.716 100.44 133.844 99.8319 134.1C99.2239 134.356 98.8559 134.484 98.7279 134.484ZM123.986 134.964C122.994 134.964 122.21 134.468 121.634 133.476C121.09 132.484 120.818 131.156 120.818 129.492C120.818 126.836 121.458 124.116 122.738 121.332C124.05 118.548 125.826 116.244 128.066 114.42C130.306 112.564 132.722 111.636 135.314 111.636C136.146 111.636 136.962 111.732 137.762 111.924C138.594 112.116 139.266 112.356 139.778 112.644C139.49 113.348 139.298 113.924 139.202 114.372C139.106 114.82 139.042 115.108 139.01 115.236C138.786 116.388 138.45 118.148 138.002 120.516C137.586 122.852 137.186 125.092 136.802 127.236C136.61 128.196 136.514 128.932 136.514 129.444C136.514 129.796 136.562 130.052 136.658 130.212C136.786 130.372 136.962 130.452 137.186 130.452C137.73 130.452 138.226 130.132 138.674 129.492C139.122 128.82 139.602 127.892 140.114 126.708C140.178 126.516 140.258 126.356 140.354 126.228C140.45 126.1 140.578 126.036 140.738 126.036C141.026 126.036 141.17 126.26 141.17 126.708C141.17 126.932 141.154 127.108 141.122 127.236C140.962 128.452 140.546 129.668 139.874 130.884C139.202 132.068 138.37 133.044 137.378 133.812C136.418 134.58 135.426 134.964 134.402 134.964C133.57 134.964 132.914 134.66 132.434 134.052C131.986 133.444 131.762 132.628 131.762 131.604C131.762 131.348 131.794 130.964 131.858 130.452L132.098 128.82H132.002C130.818 130.612 129.458 132.084 127.922 133.236C126.418 134.388 125.106 134.964 123.986 134.964ZM126.722 130.212C127.426 130.212 128.322 129.588 129.41 128.34C130.53 127.092 131.57 125.524 132.53 123.636C133.49 121.716 134.13 119.812 134.45 117.924L134.786 116.052C133.986 115.572 133.25 115.332 132.578 115.332C131.554 115.332 130.514 115.972 129.458 117.252C128.434 118.5 127.586 120.132 126.914 122.148C126.274 124.132 125.954 126.164 125.954 128.244C125.954 129.012 126.002 129.54 126.098 129.828C126.226 130.084 126.434 130.212 126.722 130.212ZM146.484 134.964C144.756 134.964 143.892 133.7 143.892 131.172C143.892 130.404 143.956 129.636 144.084 128.868L146.964 111.252C147.636 106.932 148.452 103.476 149.412 100.884C150.404 98.2921 151.716 96.3561 153.348 95.0761C154.308 94.3401 155.252 93.8441 156.18 93.5881C157.14 93.3321 158.388 93.0921 159.924 92.8681C160.916 92.7081 161.556 92.5961 161.844 92.5321C162.164 92.4361 162.372 92.3881 162.468 92.3881C162.788 92.3881 162.948 92.5641 162.948 92.9161C162.948 93.2041 162.82 93.5561 162.564 93.9721C162.34 94.3561 162.052 94.7241 161.7 95.0761C161.348 95.3961 160.996 95.6041 160.644 95.7001C160.324 95.7641 159.908 95.7961 159.396 95.7961C157.988 95.7961 156.82 96.2761 155.892 97.2361C155.092 98.0361 154.404 99.2361 153.828 100.836C153.284 102.404 152.788 104.612 152.34 107.46L148.98 128.628C148.948 128.852 148.932 129.124 148.932 129.444C148.932 129.828 148.98 130.1 149.076 130.26C149.172 130.388 149.316 130.452 149.508 130.452C149.988 130.452 150.436 130.116 150.852 129.444C151.268 128.772 151.732 127.86 152.244 126.708C152.308 126.516 152.388 126.356 152.484 126.228C152.58 126.1 152.692 126.036 152.82 126.036C153.108 126.036 153.252 126.308 153.252 126.852C153.252 127.94 152.9 129.124 152.196 130.404C151.492 131.684 150.612 132.772 149.556 133.668C148.5 134.532 147.476 134.964 146.484 134.964ZM158.955 134.964C157.963 134.964 157.179 134.468 156.603 133.476C156.059 132.484 155.787 131.156 155.787 129.492C155.787 126.836 156.427 124.116 157.707 121.332C159.019 118.548 160.795 116.244 163.035 114.42C165.275 112.564 167.691 111.636 170.283 111.636C171.115 111.636 171.931 111.732 172.731 111.924C173.563 112.116 174.235 112.356 174.747 112.644C174.459 113.348 174.267 113.924 174.171 114.372C174.075 114.82 174.011 115.108 173.979 115.236C173.755 116.388 173.419 118.148 172.971 120.516C172.555 122.852 172.155 125.092 171.771 127.236C171.579 128.196 171.483 128.932 171.483 129.444C171.483 129.796 171.531 130.052 171.627 130.212C171.755 130.372 171.931 130.452 172.155 130.452C172.699 130.452 173.195 130.132 173.643 129.492C174.091 128.82 174.571 127.892 175.083 126.708C175.147 126.516 175.227 126.356 175.323 126.228C175.419 126.1 175.547 126.036 175.707 126.036C175.995 126.036 176.139 126.26 176.139 126.708C176.139 126.932 176.123 127.108 176.091 127.236C175.931 128.452 175.515 129.668 174.843 130.884C174.171 132.068 173.339 133.044 172.347 133.812C171.387 134.58 170.395 134.964 169.371 134.964C168.539 134.964 167.883 134.66 167.403 134.052C166.955 133.444 166.731 132.628 166.731 131.604C166.731 131.348 166.763 130.964 166.827 130.452L167.067 128.82H166.971C165.787 130.612 164.427 132.084 162.891 133.236C161.387 134.388 160.075 134.964 158.955 134.964ZM161.691 130.212C162.395 130.212 163.291 129.588 164.379 128.34C165.499 127.092 166.539 125.524 167.499 123.636C168.459 121.716 169.099 119.812 169.419 117.924L169.755 116.052C168.955 115.572 168.219 115.332 167.547 115.332C166.523 115.332 165.483 115.972 164.427 117.252C163.403 118.5 162.555 120.132 161.883 122.148C161.243 124.132 160.923 126.164 160.923 128.244C160.923 129.012 160.971 129.54 161.067 129.828C161.195 130.084 161.403 130.212 161.691 130.212Z" fill="#4E88E6"/>
<path d="M192.555 133.384C192.363 133.384 192.267 133.192 192.267 132.808C192.267 132.36 192.379 131.944 192.603 131.56C192.859 131.176 193.243 130.76 193.755 130.312C194.267 129.8 194.635 129.4 194.859 129.112C195.083 128.824 195.275 128.408 195.435 127.864C195.627 127.32 195.851 126.488 196.107 125.368L200.475 104.344H200.187C200.027 104.344 199.691 104.312 199.179 104.248C198.539 104.12 197.867 104.056 197.163 104.056C196.235 104.056 195.451 104.184 194.811 104.44C194.203 104.696 193.643 105.16 193.131 105.832C192.971 106.056 192.811 106.248 192.651 106.408C192.491 106.536 192.347 106.6 192.219 106.6C191.931 106.6 191.787 106.44 191.787 106.12C191.787 105.8 191.819 105.544 191.883 105.352C192.203 103.72 192.987 102.44 194.235 101.512C195.483 100.552 197.051 100.072 198.939 100.072C199.323 100.072 199.931 100.104 200.763 100.168C201.499 100.264 202.267 100.312 203.067 100.312C203.355 100.312 204.075 100.264 205.227 100.168C205.803 100.104 206.203 100.072 206.427 100.072C206.363 100.904 206.331 101.624 206.331 102.232C206.331 103.416 206.475 104.792 206.763 106.36C207.051 107.896 207.515 110.056 208.155 112.84L209.643 119.224C209.867 119.864 210.011 120.424 210.075 120.904C213.371 114.952 215.547 110.952 216.603 108.904C217.691 106.824 218.603 104.984 219.339 103.384C219.723 102.616 220.027 101.976 220.251 101.464C221.531 98.8401 222.683 96.8561 223.707 95.5121C224.763 94.1681 226.011 93.1441 227.451 92.4401C228.411 91.9601 229.435 91.6401 230.523 91.4801C231.611 91.3201 232.875 91.2401 234.315 91.2401C235.051 91.2401 235.595 91.1761 235.947 91.0481C236.171 90.9841 236.363 90.9201 236.523 90.8561C236.683 90.7921 236.811 90.7601 236.907 90.7601C237.163 90.7601 237.291 90.9361 237.291 91.2881C237.291 91.9601 236.891 92.6161 236.091 93.2561C235.291 93.8961 234.443 94.2161 233.547 94.2161C232.491 94.2481 231.627 94.3121 230.955 94.4081C230.283 94.5041 229.627 94.6961 228.987 94.9841C227.771 95.5601 226.843 96.6001 226.203 98.1041C225.563 99.6081 225.035 101.848 224.619 104.824C224.395 106.2 224.187 107.736 223.995 109.432C223.835 111.128 223.675 112.888 223.515 114.712C223.099 119.384 222.699 123.272 222.315 126.376C222.283 126.984 222.155 127.544 221.931 128.056C221.739 128.536 221.499 128.904 221.211 129.16V129.208C221.851 129.528 222.491 129.688 223.131 129.688C223.579 129.688 224.027 129.608 224.475 129.448C224.955 129.256 225.259 129.16 225.387 129.16C225.515 129.16 225.595 129.192 225.627 129.256C225.691 129.32 225.723 129.448 225.723 129.64C225.723 130.056 225.531 130.472 225.147 130.888C223.867 132.552 222.619 133.384 221.403 133.384C220.955 133.384 220.331 133.272 219.531 133.048C219.435 133.016 219.131 132.936 218.619 132.808C218.107 132.68 217.595 132.616 217.083 132.616C216.411 132.616 215.771 132.744 215.163 133C214.587 133.256 214.235 133.384 214.107 133.384C213.883 133.384 213.771 133.192 213.771 132.808C213.771 131.944 214.283 131.112 215.307 130.312L216.171 129.64C216.555 129.352 216.811 129.128 216.939 128.968C217.099 128.776 217.195 128.488 217.227 128.104L217.323 127.096C217.835 121.528 218.187 118.024 218.379 116.584C218.571 115.112 218.779 113.368 219.003 111.352H218.955C217.611 113.496 216.219 115.976 214.779 118.792C213.339 121.608 212.171 124.168 211.275 126.472C210.571 127.656 209.739 128.808 208.779 129.928C207.851 131.048 207.211 131.608 206.859 131.608C206.763 131.608 206.683 131.56 206.619 131.464C206.587 131.336 206.571 131.176 206.571 130.984C206.315 128.68 206.107 127 205.947 125.944C205.819 124.856 205.515 123.224 205.035 121.048C204.811 120.088 204.475 118.68 204.027 116.824C203.611 114.968 203.307 113.528 203.115 112.504L203.067 112.456L200.139 127C200.107 127.096 199.995 127.448 199.803 128.056C199.643 128.632 199.435 129.032 199.179 129.256V129.352C199.787 129.576 200.363 129.688 200.907 129.688C201.387 129.688 201.803 129.608 202.155 129.448C202.539 129.256 202.795 129.16 202.923 129.16C203.179 129.16 203.307 129.32 203.307 129.64C203.307 129.928 203.115 130.344 202.731 130.888C202.027 131.848 201.419 132.504 200.907 132.856C200.395 133.208 199.819 133.384 199.179 133.384C198.731 133.384 198.187 133.256 197.547 133C196.779 132.744 196.139 132.616 195.627 132.616C194.891 132.616 194.219 132.744 193.611 133C193.003 133.256 192.651 133.384 192.555 133.384ZM230.796 133.864C230.284 133.864 230.028 133.704 230.028 133.384C230.028 133.224 230.108 132.904 230.268 132.424C230.62 131.4 230.844 130.568 230.94 129.928C231.196 128.712 231.548 126.84 231.996 124.312C232.476 121.784 232.828 119.608 233.052 117.784C233.212 116.664 233.292 115.976 233.292 115.72C233.292 115.304 233.164 115.096 232.908 115.096C232.236 115.096 231.372 116.072 230.316 118.024C230.188 118.28 230.044 118.52 229.884 118.744C229.724 118.936 229.564 119.032 229.404 119.032C229.084 119.032 228.924 118.76 228.924 118.216C228.924 117.352 229.292 116.312 230.028 115.096C230.796 113.848 231.724 112.776 232.812 111.88C233.932 110.984 235.004 110.536 236.028 110.536C236.668 110.536 237.18 110.76 237.564 111.208C237.948 111.656 238.14 112.36 238.14 113.32C238.14 114.568 238.012 115.992 237.756 117.592H237.804C238.988 115.48 240.268 113.784 241.644 112.504C243.02 111.192 244.332 110.536 245.58 110.536C247.212 110.536 248.028 111.656 248.028 113.896C248.028 114.472 247.948 115.272 247.788 116.296L247.74 116.584H247.788C249.036 114.696 250.284 113.224 251.532 112.168C252.78 111.08 253.98 110.536 255.132 110.536C256.764 110.536 257.58 111.688 257.58 113.992C257.58 114.952 257.436 116.152 257.148 117.592C256.604 120.344 256.284 121.944 256.188 122.392C255.996 123.416 255.772 124.616 255.516 125.992C255.26 127.336 255.132 128.136 255.132 128.392C255.132 129.032 255.34 129.352 255.756 129.352C256.236 129.352 256.684 129.032 257.1 128.392C257.516 127.752 257.964 126.824 258.444 125.608C258.636 125.16 258.86 124.936 259.116 124.936C259.276 124.936 259.388 125.048 259.452 125.272C259.548 125.496 259.58 125.784 259.548 126.136C259.42 127.288 258.988 128.472 258.252 129.688C257.548 130.872 256.684 131.864 255.66 132.664C254.636 133.464 253.612 133.864 252.588 133.864C250.988 133.864 250.188 132.808 250.188 130.696C250.188 129.384 250.572 126.84 251.34 123.064C251.596 121.816 251.82 120.584 252.012 119.368C252.236 118.12 252.364 117.112 252.396 116.344V116.056C252.396 115.48 252.22 115.192 251.868 115.192C251.42 115.192 250.844 115.624 250.14 116.488C249.468 117.32 248.78 118.424 248.076 119.8C247.404 121.176 246.844 122.584 246.396 124.024L244.908 131.848C244.812 132.328 244.252 132.792 243.228 133.24C242.204 133.656 241.324 133.864 240.588 133.864C240.3 133.864 240.124 133.8 240.06 133.672C239.996 133.576 239.996 133.384 240.06 133.096C240.092 132.968 240.556 130.552 241.452 125.848C242.38 121.144 242.892 117.976 242.988 116.344V115.96C242.988 115.448 242.828 115.192 242.508 115.192C241.964 115.192 241.276 115.752 240.444 116.872C239.612 117.992 238.828 119.4 238.092 121.096C237.356 122.792 236.828 124.44 236.508 126.04L235.74 129.928C235.548 130.888 234.924 131.784 233.868 132.616C232.844 133.448 231.82 133.864 230.796 133.864ZM265.122 133.864C264.13 133.864 263.346 133.368 262.77 132.376C262.226 131.384 261.954 130.056 261.954 128.392C261.954 125.736 262.594 123.016 263.874 120.232C265.186 117.448 266.962 115.144 269.202 113.32C271.442 111.464 273.858 110.536 276.45 110.536C277.282 110.536 278.098 110.632 278.898 110.824C279.73 111.016 280.402 111.256 280.914 111.544C280.626 112.248 280.434 112.824 280.338 113.272C280.242 113.72 280.178 114.008 280.146 114.136C279.922 115.288 279.586 117.048 279.138 119.416C278.722 121.752 278.322 123.992 277.938 126.136C277.746 127.096 277.65 127.832 277.65 128.344C277.65 128.696 277.698 128.952 277.794 129.112C277.922 129.272 278.098 129.352 278.322 129.352C278.866 129.352 279.362 129.032 279.81 128.392C280.258 127.72 280.738 126.792 281.25 125.608C281.314 125.416 281.394 125.256 281.49 125.128C281.586 125 281.714 124.936 281.874 124.936C282.162 124.936 282.306 125.16 282.306 125.608C282.306 125.832 282.29 126.008 282.258 126.136C282.098 127.352 281.682 128.568 281.01 129.784C280.338 130.968 279.506 131.944 278.514 132.712C277.554 133.48 276.562 133.864 275.538 133.864C274.706 133.864 274.05 133.56 273.57 132.952C273.122 132.344 272.898 131.528 272.898 130.504C272.898 130.248 272.93 129.864 272.994 129.352L273.234 127.72H273.138C271.954 129.512 270.594 130.984 269.058 132.136C267.554 133.288 266.242 133.864 265.122 133.864ZM267.858 129.112C268.562 129.112 269.458 128.488 270.546 127.24C271.666 125.992 272.706 124.424 273.666 122.536C274.626 120.616 275.266 118.712 275.586 116.824L275.922 114.952C275.122 114.472 274.386 114.232 273.714 114.232C272.69 114.232 271.65 114.872 270.594 116.152C269.57 117.4 268.722 119.032 268.05 121.048C267.41 123.032 267.09 125.064 267.09 127.144C267.09 127.912 267.138 128.44 267.234 128.728C267.362 128.984 267.57 129.112 267.858 129.112Z" fill="#E45752"/>
<path d="M72.4798 62.9553V59.7822H68.1216V54.4036H63.1364V50.0109H59.9566V54.4052H55.3483V50.0109H52.1669V54.4052H47.5421V50.0109H44.3656V54.4052H39.1319V59.7822H34.7573V62.9553H39.1319V67.5703H34.7573V70.7451H39.1319V75.3468H34.7573V78.52H39.1319V83.3423H44.3656V87.9868H47.5454V83.3423H52.1685V87.9835H55.3483V83.3423H59.9566V87.9835H63.1364V83.3423H68.1216V78.52H72.4798V75.3435H68.1216V70.7434H72.4798V67.5686H68.1216V62.9537L72.4798 62.9553Z" fill="#EFD80D"/>
<path d="M63.1907 59.3197H44.0595V78.418H63.1907V59.3197Z" fill="#8E7A16"/>
<path d="M53.3749 12.4233C58.6926 12.4233 63.872 13.4355 68.7865 15.4187C73.8604 17.465 78.4658 20.5206 82.3235 24.4001L84.5733 22.1535C80.4771 18.0567 75.613 14.8082 70.2595 12.5941C64.9059 10.3799 59.1682 9.24359 53.3749 9.25017C42.0878 9.25017 30.799 13.5458 22.1781 22.1535L24.4264 24.3852C28.2925 20.5162 32.8957 17.4621 37.9633 15.4039C42.8607 13.4274 48.0938 12.4159 53.3749 12.425V12.4233Z" fill="#EFD80D"/>
<path d="M53.3749 23.039C61.4691 23.039 69.0778 26.1858 74.7987 31.8952L77.0469 29.6503C73.9393 26.5418 70.2485 24.0773 66.1863 22.3983C62.1241 20.7192 57.7704 19.8586 53.3749 19.8658C48.9794 19.8585 44.6257 20.7191 40.5635 22.3981C36.5013 24.0772 32.8105 26.5417 29.7029 29.6503L31.9527 31.8952C34.7633 29.0796 38.1029 26.8477 41.7794 25.3278C45.4559 23.8079 49.3967 23.03 53.3749 23.039ZM53.3749 35.1128C58.2351 35.1128 62.8022 36.9973 66.2453 40.4354L68.4952 38.1889C66.5103 36.2032 64.1529 34.629 61.5581 33.5566C58.9634 32.4842 56.1825 31.9347 53.3749 31.9396C50.5673 31.9347 47.7864 32.4842 45.1917 33.5566C42.597 34.629 40.2395 36.2032 38.2546 38.1889L40.5045 40.4354C42.1936 38.7444 44.2001 37.4036 46.4088 36.4902C48.6174 35.5768 50.9848 35.1087 53.3749 35.1128Z" fill="#EFD80D"/>
<path d="M233.298 45.8155L233 45.7375C233.106 45.117 233.799 44.9211 234.325 45.2181C234.611 44.6885 233.901 44.1892 234.182 43.6491C234.542 42.9561 235.351 42.9914 236.03 42.8807C236.158 42.8598 236.113 42.56 236.289 42.6613C236.418 42.7357 236.71 42.801 236.712 42.5827C236.716 42.1473 237.309 41.6058 236.949 41.3222C237.594 41.3056 237.713 40.5083 237.903 40.0855C238.054 39.7515 238.347 39.5202 238.653 39.3222C238.272 39.0235 238.724 38.9784 238.843 38.6728C238.577 38.6829 238.238 38.8932 238.139 38.5169C238.348 38.465 238.5 38.3182 238.491 38.1013C238.286 38.0324 237.871 38.5584 237.828 38.1533C237.784 37.7283 238.036 37.6439 238.383 37.4776C237.839 37.4827 238.088 36.7878 238.162 36.5021C238.307 35.9411 238.18 35.1893 238.123 34.6179C238.08 34.1853 237.881 33.7726 237.849 33.3415C237.832 33.1055 238.618 33.0128 238.485 32.462C238.405 32.1322 237.615 31.375 238.14 31.1841C238.611 31.0128 238.207 30.0521 238.002 29.8327C237.589 29.3901 237.538 28.7281 237.092 28.3551C236.799 28.1098 237.092 27.8006 237.263 27.5762C237.468 27.306 237.27 26.9535 237.517 26.7241C237.653 26.8781 237.752 27.0513 237.814 27.2436C238.391 26.8558 239.212 26.0982 238.946 25.3456C238.672 24.5747 238.162 24.4112 238.653 23.6847C238.932 24.0314 239.236 24.5047 239.476 24.89C239.725 25.2875 240.335 25.4087 239.789 25.8925C240.522 26.6999 240.162 24.3846 240.058 24.1367C239.91 23.7796 241.624 22.9563 241.843 22.6677C242.118 22.3044 242.315 21.6947 242.775 21.5032C243.036 21.3949 243.654 21.4566 243.8 21.1756C244.009 20.7762 243.605 20.6319 243.69 20.3859C243.84 19.9483 243.903 19.3985 244.171 19.0096C243.773 18.9706 243.881 18.844 244.151 18.7112C244.398 18.59 244.303 18.2639 244.296 18.0604C244.28 17.5828 245.118 17.4489 245.118 17.2819C245.118 17.0319 246.138 16.0658 246.376 16.0719C246.822 16.0829 247.202 16.4429 247.639 16.4859C247.662 16.4853 247.687 16.4866 247.715 16.4901C247.689 16.4898 247.664 16.4884 247.639 16.4859C247.324 16.4941 247.349 16.8527 247.011 16.8537C247.287 17.8353 247.89 16.529 248.029 16.1751C248.373 15.2916 248.78 15.3551 249.749 15.5102C251.071 15.722 251.491 14.8966 252.534 14.2966C253.107 13.9665 254.775 13.5737 254.261 12.6202C254.48 12.5574 255.099 12.3677 254.747 12.802C255.153 12.7425 254.898 12.3554 255.343 12.1613C255.878 11.9279 256.349 11.9275 256.807 12.2948C258.368 13.5477 255.007 14.0553 254.504 14.6722C254.235 15.0016 254.133 15.4824 253.814 15.7685C253.593 15.9673 253.233 15.9291 253.036 16.1444C252.664 16.5499 252.275 17.169 252.036 17.6553C251.679 18.3801 251.664 19.124 251.462 19.8877C251.263 20.6377 250.695 21.5392 250.176 22.1273C250.607 22.1392 250.94 21.9779 251.258 21.7117C251.327 21.8877 251.354 22.0699 251.339 22.2575C252.158 22.0544 251.884 23.4495 252.299 23.9567C252.892 24.6811 253.055 25.1068 252.708 25.9968C252.534 26.4441 252.254 27.4012 252.884 27.6281C253.599 27.8854 253.22 28.7028 253.956 28.8695C254.253 28.937 254.538 28.7551 254.829 28.7252C255.303 28.6761 255.736 28.9817 256.212 28.9399C256.636 28.9027 256.992 28.6134 257.425 28.6213C257.809 28.6285 258.096 28.9853 258.459 29.0676C258.726 29.1278 258.975 28.9124 259.219 29.1177C259.54 29.3876 259.757 29.8811 259.994 30.2155C260.213 30.5258 260.415 30.8407 260.612 31.1632C260.868 31.5795 260.973 31.463 261.359 31.5702C261.921 31.7264 262.437 31.2735 263.17 31.5556C263.394 31.6418 263.887 31.4316 264.129 31.4266C264.659 31.415 265.11 31.4554 265.575 31.1845C266.101 30.8779 266.972 31.481 266.695 32.0132C266.537 32.3173 266.152 32.5507 266.083 32.8909C265.997 33.3097 266.173 33.5294 265.759 33.8004C265.207 34.1615 265.426 35.6132 265.371 36.2019C265.306 36.9015 265.608 37.6453 265.745 38.3838C265.848 38.9401 266.958 39.675 266.778 40.2424C266.556 40.9405 265.186 41.2129 265.216 42.0499C265.713 41.6916 266.926 43.0026 267.084 43.4005C267.049 43.5084 267.058 43.6174 267.034 43.7277C267.098 43.9301 267.261 44.1304 267.261 44.3472C267.262 44.7978 267.535 45.274 267.651 45.7202C267.697 45.8968 267.94 46.5803 267.99 46.8538C268.041 47.1273 267.888 46.9506 267.662 47.0182C267.284 47.1312 267.167 46.9594 267.26 46.7465C267.413 46.3977 267.196 44.1141 266.249 44.1488C265.879 44.1623 264.875 45.9995 264.593 44.9864C264.488 44.6094 263.983 44.4377 264.039 44.9851C264.102 45.6002 263.288 45.3751 262.852 45.3751H260.893C260.461 45.3751 259.994 45.1308 259.569 45.3109C258.934 45.5793 259.44 46.948 259.375 47.453C259.889 47.1193 261.095 47.4087 261.327 47.9538C261.413 48.1554 261.461 48.8344 261.06 48.7994C260.813 48.7778 260.663 48.4617 260.396 48.5075C259.808 48.6086 258.778 48.764 258.735 49.4239L258.735 49.424C258.682 50.2278 258.609 51.3525 259.332 51.8781C259.696 52.1433 260.122 52.3724 260.103 52.8738C260.085 53.3551 260.34 53.5394 260.536 53.9456C260.98 54.8674 260.405 56.1282 260.269 57.0709C259.943 59.3404 259.996 61.8091 259.266 64C259.091 63.5826 258.746 63.2809 258.436 62.9501C258.082 62.5735 257.634 62.9495 257.224 62.7257C256.844 62.5183 257.801 60.9825 257.933 60.7661C258.192 60.3447 258.966 59.5169 258.572 59.1124C258.402 58.9378 258.228 58.4776 257.953 58.5702C257.464 58.735 256.908 57.9848 256.785 57.8873C256.315 57.5145 255.918 57.8894 255.422 58.1216C254.95 58.3429 254.637 57.7465 254.203 57.6766C253.938 57.634 253.187 58.7531 252.306 58.4967C251.998 58.407 251.787 58.4093 251.404 58.4569C250.876 58.5233 250.597 58.4712 250.181 58.1613C249.857 57.9192 250.198 57.2755 250.081 56.9075C249.922 56.4053 249.094 56.6777 249.001 56.1737C248.937 55.824 248.758 55.4265 248.61 55.0967L248.598 55.0706C248.44 54.7189 247.964 54.8696 247.739 54.5597C247.494 54.2238 247.337 54.1289 247.01 54.0232C246.594 53.889 246.349 53.3492 246.317 52.9885C246.258 52.3009 244.947 51.2003 244.28 51.0127C244.152 50.9762 244.017 50.8333 243.904 51.0072L243.899 51.0148C243.78 51.1952 243.78 51.1962 243.521 51.083C243.13 50.912 242.528 50.7096 242.199 50.4621C241.943 50.2699 240.757 48.8335 240.617 49.8562C240.544 50.3876 238.457 49.7103 238.024 49.636C237.322 49.5155 237.838 48.9448 237.321 48.7323C236.867 48.5458 237.068 48.1742 236.483 48.1673C236.023 48.1623 235.114 47.6724 234.774 47.4026C234.202 46.9495 233.738 46.393 233.298 45.8155Z" fill="#E45752"/>
</g>
<defs>
<clipPath id="clip0_101_63">
<rect width="298" height="145" fill="white"/>
</clipPath>
</defs>
</svg>
