<svg width="572" height="326" viewBox="0 0 572 326" fill="none" xmlns="http://www.w3.org/2000/svg">
<path fill-rule="evenodd" clip-rule="evenodd" d="M135.374 25.6257C135.374 27.6756 137.197 29.3374 139.446 29.3374C141.695 29.3374 143.518 27.6756 143.518 25.6257C143.518 23.5758 141.695 21.9141 139.446 21.9141C137.197 21.9141 135.374 23.5758 135.374 25.6257ZM135.374 177.803C135.374 179.853 137.197 181.515 139.446 181.515C141.695 181.515 143.518 179.853 143.518 177.803C143.518 175.754 141.695 174.092 139.446 174.092C137.197 174.092 135.374 175.754 135.374 177.803ZM249.393 101.715C249.393 157.062 200.168 201.929 139.446 201.929C78.7246 201.929 29.5 157.062 29.5 101.715C29.5 46.3675 78.7246 1.5 139.446 1.5C200.168 1.5 249.393 46.3675 249.393 101.715Z" fill="#231F20" stroke="#DDAF85" stroke-width="3" stroke-linecap="round" stroke-linejoin="round"/>
<path fill-rule="evenodd" clip-rule="evenodd" d="M1.5 225.251C1.5 222.629 5.89722 220.504 11.3214 220.504H266.679C272.103 220.504 276.5 222.629 276.5 225.251M1.5 225.251V310.695ZM276.5 225.251V310.695ZM276.5 310.695C276.5 313.317 272.103 315.442 266.679 315.442H11.3214C5.89722 315.442 1.5 313.317 1.5 310.695M135.726 225.251C135.726 226.125 137.192 228.243 139 228.243C140.808 228.243 142.274 226.125 142.274 225.251C142.274 224.377 140.808 223.669 139 223.669C137.192 223.669 135.726 224.377 135.726 225.251ZM135.726 310.695C135.726 311.569 137.192 312.277 139 312.277C140.808 312.277 142.274 311.569 142.274 310.695C142.274 309.821 140.808 308.218 139 308.218C137.192 308.218 135.726 309.821 135.726 310.695Z" stroke="#DDAF85" stroke-width="3" stroke-linecap="round" stroke-linejoin="round"/>
<path fill-rule="evenodd" clip-rule="evenodd" d="M347.092 43.2673C347.092 37.4266 352.268 32.6917 358.654 32.6917H520.529C526.915 32.6917 532.092 37.4266 532.092 43.2673V191.327C532.092 197.168 526.915 201.903 520.529 201.903H358.654C352.268 201.903 347.092 197.168 347.092 191.327V43.2673ZM435.737 45.0299C435.737 46.9769 437.463 48.5552 439.592 48.5552C441.72 48.5552 443.446 46.9769 443.446 45.0299C443.446 43.083 441.72 41.5047 439.592 41.5047C437.463 41.5047 435.737 43.083 435.737 45.0299ZM435.737 189.564C435.737 191.511 437.463 193.089 439.592 193.089C441.72 193.089 443.446 191.511 443.446 189.564C443.446 187.617 441.72 186.039 439.592 186.039C437.463 186.039 435.737 187.617 435.737 189.564Z" fill="#231F20" stroke="#9FBA7C" stroke-width="3" stroke-linecap="round" stroke-linejoin="round"/>
<path fill-rule="evenodd" clip-rule="evenodd" d="M306.5 228.415C306.5 224.046 310.721 220.504 315.929 220.504H561.071C566.279 220.504 570.5 224.046 570.5 228.415M306.5 228.415V307.531ZM570.5 228.415V307.531ZM570.5 307.531C570.5 311.9 566.279 315.442 561.071 315.442H315.929C310.721 315.442 306.5 311.9 306.5 307.531M435.357 228.415C435.357 229.872 436.764 231.053 438.5 231.053C440.236 231.053 441.643 229.872 441.643 228.415C441.643 226.959 440.236 225.778 438.5 225.778C436.764 225.778 435.357 226.959 435.357 228.415ZM435.357 307.531C435.357 308.987 436.764 310.168 438.5 310.168C440.236 310.168 441.643 308.987 441.643 307.531C441.643 306.074 440.236 304.893 438.5 304.893C436.764 304.893 435.357 306.074 435.357 307.531Z" stroke="#9FBA7C" stroke-width="3" stroke-linecap="round" stroke-linejoin="round"/>
<path d="M380.323 252.421V249.613H386.155C388.435 249.613 390.151 249.181 391.303 248.317C392.455 247.429 393.031 246.013 393.031 244.069C393.031 242.269 392.491 240.925 391.411 240.037C390.355 239.125 388.723 238.669 386.515 238.669H380.323V235.933H386.587C388.147 235.933 389.527 236.113 390.727 236.473C391.951 236.833 392.983 237.361 393.823 238.057C394.663 238.753 395.299 239.617 395.731 240.649C396.187 241.657 396.415 242.833 396.415 244.177C396.415 245.953 396.007 247.453 395.191 248.677C394.375 249.901 393.175 250.837 391.591 251.485C390.007 252.109 388.063 252.421 385.759 252.421H380.323ZM378.559 259.693V235.933H381.871V259.693H378.559ZM408.623 260.161C407.159 260.161 405.863 259.945 404.735 259.513C403.631 259.057 402.695 258.409 401.927 257.569C401.159 256.729 400.583 255.733 400.199 254.581C399.815 253.429 399.623 252.133 399.623 250.693C399.623 249.229 399.815 247.885 400.199 246.661C400.583 245.437 401.147 244.369 401.891 243.457C402.635 242.545 403.547 241.849 404.627 241.369C405.707 240.865 406.943 240.613 408.335 240.613C409.559 240.613 410.675 240.817 411.683 241.225C412.691 241.633 413.543 242.269 414.239 243.133C414.959 243.973 415.499 245.041 415.859 246.337C416.219 247.609 416.363 249.109 416.291 250.837L401.675 250.945V248.713L414.311 248.605L413.195 250.117C413.315 248.605 413.171 247.357 412.763 246.373C412.355 245.389 411.767 244.645 410.999 244.141C410.255 243.637 409.367 243.385 408.335 243.385C407.231 243.385 406.259 243.673 405.419 244.249C404.579 244.825 403.931 245.653 403.475 246.733C403.043 247.813 402.827 249.121 402.827 250.657C402.827 252.865 403.319 254.557 404.303 255.733C405.287 256.885 406.751 257.461 408.695 257.461C409.439 257.461 410.087 257.377 410.639 257.209C411.215 257.017 411.695 256.765 412.079 256.453C412.487 256.117 412.811 255.733 413.051 255.301C413.315 254.869 413.519 254.401 413.663 253.897L416.543 254.581C416.327 255.445 415.991 256.225 415.535 256.921C415.103 257.593 414.551 258.169 413.879 258.649C413.231 259.129 412.475 259.501 411.611 259.765C410.747 260.029 409.751 260.161 408.623 260.161ZM409.127 238.201H406.355L408.947 232.621H412.547L409.127 238.201ZM420.952 259.693V249.613V241.081H423.904L423.616 247.561H424.228C424.444 246.145 424.78 244.921 425.236 243.889C425.692 242.857 426.292 242.053 427.036 241.477C427.804 240.901 428.752 240.613 429.88 240.613C430.12 240.613 430.396 240.637 430.708 240.685C431.02 240.709 431.38 240.793 431.788 240.937L431.608 244.357C431.248 244.213 430.888 244.117 430.528 244.069C430.168 243.997 429.82 243.961 429.484 243.961C428.548 243.961 427.732 244.261 427.036 244.861C426.364 245.461 425.8 246.277 425.344 247.309C424.888 248.317 424.516 249.457 424.228 250.729V259.693H420.952ZM441.601 260.161C440.017 260.161 438.661 259.741 437.533 258.901C436.405 258.061 435.541 256.909 434.941 255.445C434.365 253.981 434.077 252.301 434.077 250.405C434.077 248.509 434.365 246.829 434.941 245.365C435.517 243.901 436.357 242.749 437.461 241.909C438.565 241.069 439.921 240.649 441.529 240.649C442.849 240.649 443.929 240.925 444.769 241.477C445.609 242.029 446.281 242.749 446.785 243.637C447.313 244.501 447.697 245.449 447.937 246.481H448.585C448.465 245.785 448.357 245.065 448.261 244.321C448.165 243.553 448.081 242.809 448.009 242.089C447.937 241.345 447.901 240.685 447.901 240.109V234.493H451.213V250.513V259.693H448.261L448.441 254.653H447.865C447.577 255.733 447.169 256.693 446.641 257.533C446.113 258.349 445.441 258.997 444.625 259.477C443.809 259.933 442.801 260.161 441.601 260.161ZM442.357 257.281C443.221 257.281 444.001 257.077 444.697 256.669C445.393 256.261 445.981 255.733 446.461 255.085C446.941 254.413 447.301 253.693 447.541 252.925C447.805 252.157 447.937 251.413 447.937 250.693V250.261C447.937 249.757 447.865 249.217 447.721 248.641C447.577 248.041 447.361 247.441 447.073 246.841C446.809 246.241 446.449 245.689 445.993 245.185C445.561 244.657 445.045 244.249 444.445 243.961C443.845 243.649 443.173 243.493 442.429 243.493C441.349 243.493 440.437 243.805 439.693 244.429C438.973 245.029 438.421 245.857 438.037 246.913C437.677 247.969 437.497 249.157 437.497 250.477C437.497 251.845 437.689 253.045 438.073 254.077C438.457 255.085 439.009 255.877 439.729 256.453C440.473 257.005 441.349 257.281 442.357 257.281ZM456.952 259.693V241.081H460.228V259.693H456.952ZM458.608 237.841C457.84 237.841 457.264 237.685 456.88 237.373C456.496 237.061 456.304 236.593 456.304 235.969C456.304 235.345 456.496 234.877 456.88 234.565C457.264 234.253 457.828 234.097 458.572 234.097C459.34 234.097 459.916 234.253 460.3 234.565C460.684 234.877 460.876 235.345 460.876 235.969C460.876 236.569 460.684 237.037 460.3 237.373C459.916 237.685 459.352 237.841 458.608 237.841ZM472.468 260.161C470.884 260.161 469.528 259.741 468.4 258.901C467.272 258.061 466.408 256.909 465.808 255.445C465.232 253.981 464.944 252.301 464.944 250.405C464.944 248.509 465.232 246.829 465.808 245.365C466.384 243.901 467.224 242.749 468.328 241.909C469.432 241.069 470.788 240.649 472.396 240.649C473.716 240.649 474.796 240.925 475.636 241.477C476.476 242.029 477.148 242.749 477.652 243.637C478.18 244.501 478.564 245.449 478.804 246.481H479.452C479.332 245.785 479.224 245.065 479.128 244.321C479.032 243.553 478.948 242.809 478.876 242.089C478.804 241.345 478.768 240.685 478.768 240.109V234.493H482.08V250.513V259.693H479.128L479.308 254.653H478.732C478.444 255.733 478.036 256.693 477.508 257.533C476.98 258.349 476.308 258.997 475.492 259.477C474.676 259.933 473.668 260.161 472.468 260.161ZM473.224 257.281C474.088 257.281 474.868 257.077 475.564 256.669C476.26 256.261 476.848 255.733 477.328 255.085C477.808 254.413 478.168 253.693 478.408 252.925C478.672 252.157 478.804 251.413 478.804 250.693V250.261C478.804 249.757 478.732 249.217 478.588 248.641C478.444 248.041 478.228 247.441 477.94 246.841C477.676 246.241 477.316 245.689 476.86 245.185C476.428 244.657 475.912 244.249 475.312 243.961C474.712 243.649 474.04 243.493 473.296 243.493C472.216 243.493 471.304 243.805 470.56 244.429C469.84 245.029 469.288 245.857 468.904 246.913C468.544 247.969 468.364 249.157 468.364 250.477C468.364 251.845 468.556 253.045 468.94 254.077C469.324 255.085 469.876 255.877 470.596 256.453C471.34 257.005 472.216 257.281 473.224 257.281ZM492.068 260.161C491.06 260.161 490.148 259.969 489.332 259.585C488.516 259.177 487.868 258.589 487.388 257.821C486.908 257.029 486.668 256.033 486.668 254.833C486.668 253.945 486.824 253.165 487.136 252.493C487.472 251.821 487.976 251.245 488.648 250.765C489.344 250.285 490.232 249.889 491.312 249.577C492.392 249.265 493.712 249.001 495.272 248.785C496.16 248.665 496.88 248.545 497.432 248.425C498.008 248.305 498.428 248.113 498.692 247.849C498.956 247.561 499.088 247.141 499.088 246.589C499.088 245.677 498.776 244.909 498.152 244.285C497.528 243.661 496.544 243.349 495.2 243.349C494.504 243.349 493.796 243.469 493.076 243.709C492.356 243.949 491.72 244.357 491.168 244.933C490.64 245.485 490.304 246.265 490.16 247.273L487.136 246.265C487.328 245.401 487.64 244.621 488.072 243.925C488.528 243.229 489.104 242.641 489.8 242.161C490.496 241.657 491.3 241.273 492.212 241.009C493.148 240.745 494.18 240.613 495.308 240.613C496.868 240.613 498.164 240.877 499.196 241.405C500.252 241.933 501.032 242.749 501.536 243.853C502.064 244.933 502.328 246.325 502.328 248.029V252.169C502.328 252.913 502.34 253.729 502.364 254.617C502.412 255.481 502.472 256.357 502.544 257.245C502.616 258.109 502.688 258.925 502.76 259.693H499.736C499.664 258.925 499.592 258.157 499.52 257.389C499.472 256.621 499.436 255.853 499.412 255.085H498.944C498.584 255.973 498.104 256.801 497.504 257.569C496.904 258.337 496.148 258.961 495.236 259.441C494.348 259.921 493.292 260.161 492.068 260.161ZM493.04 257.497C493.568 257.497 494.096 257.413 494.624 257.245C495.176 257.077 495.716 256.801 496.244 256.417C496.796 256.033 497.312 255.541 497.792 254.941C498.296 254.341 498.74 253.621 499.124 252.781V249.181L500.06 249.361C499.676 249.745 499.16 250.033 498.512 250.225C497.888 250.417 497.192 250.573 496.424 250.693C495.656 250.813 494.888 250.945 494.12 251.089C493.352 251.209 492.644 251.401 491.996 251.665C491.372 251.905 490.868 252.253 490.484 252.709C490.1 253.165 489.908 253.789 489.908 254.581C489.908 255.541 490.196 256.273 490.772 256.777C491.348 257.257 492.104 257.497 493.04 257.497Z" fill="#9FBA7C"/>
<path d="M331.538 293.925V270.165H340.25C341.57 270.165 342.77 270.285 343.85 270.525C344.954 270.765 345.89 271.137 346.658 271.641C347.426 272.121 348.014 272.757 348.422 273.549C348.854 274.341 349.07 275.289 349.07 276.393C349.07 277.305 348.89 278.109 348.53 278.805C348.17 279.501 347.594 280.065 346.802 280.497C346.034 280.929 345.014 281.265 343.742 281.505V281.901C345.95 282.093 347.546 282.693 348.53 283.701C349.538 284.709 350.042 286.029 350.042 287.661C350.042 289.005 349.718 290.145 349.07 291.081C348.446 291.993 347.474 292.701 346.154 293.205C344.858 293.685 343.178 293.925 341.114 293.925H331.538ZM334.706 291.117H341.438C343.238 291.117 344.57 290.817 345.434 290.217C346.322 289.593 346.766 288.645 346.766 287.373C346.766 285.909 346.154 284.817 344.93 284.097C343.73 283.353 341.906 282.981 339.458 282.981H334.706V291.117ZM334.706 280.533H338.81C341.162 280.533 342.914 280.221 344.066 279.597C345.218 278.949 345.794 277.989 345.794 276.717C345.794 275.445 345.29 274.497 344.282 273.873C343.298 273.249 341.798 272.937 339.782 272.937H334.706V280.533ZM354.982 293.925V275.313H358.258V293.925H354.982ZM356.638 272.073C355.87 272.073 355.294 271.917 354.91 271.605C354.526 271.293 354.334 270.825 354.334 270.201C354.334 269.577 354.526 269.109 354.91 268.797C355.294 268.485 355.858 268.329 356.602 268.329C357.37 268.329 357.946 268.485 358.33 268.797C358.714 269.109 358.906 269.577 358.906 270.201C358.906 270.801 358.714 271.269 358.33 271.605C357.946 271.917 357.382 272.073 356.638 272.073ZM371.938 294.393C370.162 294.393 368.59 294.009 367.222 293.241C365.878 292.449 364.822 291.321 364.054 289.857C363.31 288.393 362.938 286.617 362.938 284.529C362.938 282.369 363.334 280.581 364.126 279.165C364.942 277.725 366.022 276.645 367.366 275.925C368.71 275.205 370.21 274.845 371.866 274.845C373.594 274.845 375.13 275.229 376.474 275.997C377.842 276.741 378.922 277.845 379.714 279.309C380.506 280.749 380.902 282.537 380.902 284.673C380.902 286.809 380.506 288.597 379.714 290.037C378.946 291.477 377.878 292.569 376.51 293.313C375.166 294.033 373.642 294.393 371.938 294.393ZM372.082 291.693C373.234 291.693 374.218 291.417 375.034 290.865C375.874 290.289 376.51 289.485 376.942 288.453C377.398 287.421 377.626 286.197 377.626 284.781C377.626 283.317 377.386 282.057 376.906 281.001C376.45 279.921 375.79 279.093 374.926 278.517C374.062 277.917 373.018 277.617 371.794 277.617C370.69 277.617 369.718 277.881 368.878 278.409C368.038 278.937 367.39 279.717 366.934 280.749C366.478 281.757 366.25 282.993 366.25 284.457C366.25 286.713 366.766 288.489 367.798 289.785C368.854 291.057 370.282 291.693 372.082 291.693ZM392.119 294.393C390.535 294.393 389.179 293.973 388.051 293.133C386.923 292.293 386.059 291.141 385.459 289.677C384.883 288.213 384.595 286.533 384.595 284.637C384.595 282.741 384.883 281.061 385.459 279.597C386.035 278.133 386.875 276.981 387.979 276.141C389.083 275.301 390.439 274.881 392.047 274.881C393.367 274.881 394.447 275.157 395.287 275.709C396.127 276.261 396.799 276.981 397.303 277.869C397.831 278.733 398.215 279.681 398.455 280.713H399.103C398.983 280.017 398.875 279.297 398.779 278.553C398.683 277.785 398.599 277.041 398.527 276.321C398.455 275.577 398.419 274.917 398.419 274.341V268.725H401.731V284.745V293.925H398.779L398.959 288.885H398.383C398.095 289.965 397.687 290.925 397.159 291.765C396.631 292.581 395.959 293.229 395.143 293.709C394.327 294.165 393.319 294.393 392.119 294.393ZM392.875 291.513C393.739 291.513 394.519 291.309 395.215 290.901C395.911 290.493 396.499 289.965 396.979 289.317C397.459 288.645 397.819 287.925 398.059 287.157C398.323 286.389 398.455 285.645 398.455 284.925V284.493C398.455 283.989 398.383 283.449 398.239 282.873C398.095 282.273 397.879 281.673 397.591 281.073C397.327 280.473 396.967 279.921 396.511 279.417C396.079 278.889 395.563 278.481 394.963 278.193C394.363 277.881 393.691 277.725 392.947 277.725C391.867 277.725 390.955 278.037 390.211 278.661C389.491 279.261 388.939 280.089 388.555 281.145C388.195 282.201 388.015 283.389 388.015 284.709C388.015 286.077 388.207 287.277 388.591 288.309C388.975 289.317 389.527 290.109 390.247 290.685C390.991 291.237 391.867 291.513 392.875 291.513ZM407.47 293.925V275.313H410.746V293.925H407.47ZM409.126 272.073C408.358 272.073 407.782 271.917 407.398 271.605C407.014 271.293 406.822 270.825 406.822 270.201C406.822 269.577 407.014 269.109 407.398 268.797C407.782 268.485 408.346 268.329 409.09 268.329C409.858 268.329 410.434 268.485 410.818 268.797C411.202 269.109 411.394 269.577 411.394 270.201C411.394 270.801 411.202 271.269 410.818 271.605C410.434 271.917 409.87 272.073 409.126 272.073ZM420.934 293.925L414.274 275.349H417.91L422.986 291.153H423.49L428.53 275.349H432.094L425.47 293.925H420.934ZM443.235 294.393C441.771 294.393 440.475 294.177 439.347 293.745C438.243 293.289 437.307 292.641 436.539 291.801C435.771 290.961 435.195 289.965 434.811 288.813C434.427 287.661 434.235 286.365 434.235 284.925C434.235 283.461 434.427 282.117 434.811 280.893C435.195 279.669 435.759 278.601 436.503 277.689C437.247 276.777 438.159 276.081 439.239 275.601C440.319 275.097 441.555 274.845 442.947 274.845C444.171 274.845 445.287 275.049 446.295 275.457C447.303 275.865 448.155 276.501 448.851 277.365C449.571 278.205 450.111 279.273 450.471 280.569C450.831 281.841 450.975 283.341 450.903 285.069L436.287 285.177V282.945L448.923 282.837L447.807 284.349C447.927 282.837 447.783 281.589 447.375 280.605C446.967 279.621 446.379 278.877 445.611 278.373C444.867 277.869 443.979 277.617 442.947 277.617C441.843 277.617 440.871 277.905 440.031 278.481C439.191 279.057 438.543 279.885 438.087 280.965C437.655 282.045 437.439 283.353 437.439 284.889C437.439 287.097 437.931 288.789 438.915 289.965C439.899 291.117 441.363 291.693 443.307 291.693C444.051 291.693 444.699 291.609 445.251 291.441C445.827 291.249 446.307 290.997 446.691 290.685C447.099 290.349 447.423 289.965 447.663 289.533C447.927 289.101 448.131 288.633 448.275 288.129L451.155 288.813C450.939 289.677 450.603 290.457 450.147 291.153C449.715 291.825 449.163 292.401 448.491 292.881C447.843 293.361 447.087 293.733 446.223 293.997C445.359 294.261 444.363 294.393 443.235 294.393ZM455.563 293.925V283.845V275.313H458.515L458.227 281.793H458.839C459.055 280.377 459.391 279.153 459.847 278.121C460.303 277.089 460.903 276.285 461.647 275.709C462.415 275.133 463.363 274.845 464.491 274.845C464.731 274.845 465.007 274.869 465.319 274.917C465.631 274.941 465.991 275.025 466.399 275.169L466.219 278.589C465.859 278.445 465.499 278.349 465.139 278.301C464.779 278.229 464.431 278.193 464.095 278.193C463.159 278.193 462.343 278.493 461.647 279.093C460.975 279.693 460.411 280.509 459.955 281.541C459.499 282.549 459.127 283.689 458.839 284.961V293.925H455.563ZM476.784 294.393C475.488 294.393 474.336 294.249 473.328 293.961C472.32 293.697 471.48 293.313 470.808 292.809C470.136 292.281 469.62 291.657 469.26 290.937C468.9 290.217 468.708 289.425 468.684 288.561L471.456 287.841C471.408 288.633 471.6 289.329 472.032 289.929C472.488 290.505 473.124 290.949 473.94 291.261C474.78 291.573 475.788 291.729 476.964 291.729C478.38 291.729 479.472 291.489 480.24 291.009C481.032 290.529 481.428 289.869 481.428 289.029C481.428 288.357 481.212 287.841 480.78 287.481C480.348 287.097 479.748 286.797 478.98 286.581C478.236 286.341 477.348 286.125 476.316 285.933C475.452 285.741 474.588 285.525 473.724 285.285C472.86 285.045 472.068 284.733 471.348 284.349C470.652 283.941 470.088 283.413 469.656 282.765C469.224 282.117 469.008 281.313 469.008 280.353C469.008 279.225 469.308 278.253 469.908 277.437C470.508 276.621 471.36 275.985 472.464 275.529C473.568 275.073 474.888 274.845 476.424 274.845C477.96 274.845 479.268 275.085 480.348 275.565C481.428 276.021 482.28 276.669 482.904 277.509C483.528 278.349 483.876 279.333 483.948 280.461L481.104 281.181C481.08 280.389 480.864 279.717 480.456 279.165C480.072 278.613 479.52 278.205 478.8 277.941C478.08 277.653 477.24 277.509 476.28 277.509C475.008 277.509 474 277.749 473.256 278.229C472.512 278.709 472.14 279.369 472.14 280.209C472.14 280.833 472.356 281.337 472.788 281.721C473.244 282.105 473.856 282.405 474.624 282.621C475.392 282.837 476.244 283.053 477.18 283.269C478.14 283.461 479.052 283.677 479.916 283.917C480.804 284.157 481.596 284.469 482.292 284.853C482.988 285.237 483.54 285.753 483.948 286.401C484.356 287.025 484.56 287.829 484.56 288.813C484.56 290.037 484.236 291.069 483.588 291.909C482.94 292.725 482.028 293.349 480.852 293.781C479.7 294.189 478.344 294.393 476.784 294.393ZM489.033 293.925V275.313H492.309V293.925H489.033ZM490.689 272.073C489.921 272.073 489.345 271.917 488.961 271.605C488.577 271.293 488.385 270.825 488.385 270.201C488.385 269.577 488.577 269.109 488.961 268.797C489.345 268.485 489.909 268.329 490.653 268.329C491.421 268.329 491.997 268.485 492.381 268.797C492.765 269.109 492.957 269.577 492.957 270.201C492.957 270.801 492.765 271.269 492.381 271.605C491.997 271.917 491.433 272.073 490.689 272.073ZM504.549 294.393C502.965 294.393 501.609 293.973 500.481 293.133C499.353 292.293 498.489 291.141 497.889 289.677C497.313 288.213 497.025 286.533 497.025 284.637C497.025 282.741 497.313 281.061 497.889 279.597C498.465 278.133 499.305 276.981 500.409 276.141C501.513 275.301 502.869 274.881 504.477 274.881C505.797 274.881 506.877 275.157 507.717 275.709C508.557 276.261 509.229 276.981 509.733 277.869C510.261 278.733 510.645 279.681 510.885 280.713H511.533C511.413 280.017 511.305 279.297 511.209 278.553C511.113 277.785 511.029 277.041 510.957 276.321C510.885 275.577 510.849 274.917 510.849 274.341V268.725H514.161V284.745V293.925H511.209L511.389 288.885H510.813C510.525 289.965 510.117 290.925 509.589 291.765C509.061 292.581 508.389 293.229 507.573 293.709C506.757 294.165 505.749 294.393 504.549 294.393ZM505.305 291.513C506.169 291.513 506.949 291.309 507.645 290.901C508.341 290.493 508.929 289.965 509.409 289.317C509.889 288.645 510.249 287.925 510.489 287.157C510.753 286.389 510.885 285.645 510.885 284.925V284.493C510.885 283.989 510.813 283.449 510.669 282.873C510.525 282.273 510.309 281.673 510.021 281.073C509.757 280.473 509.397 279.921 508.941 279.417C508.509 278.889 507.993 278.481 507.393 278.193C506.793 277.881 506.121 277.725 505.377 277.725C504.297 277.725 503.385 278.037 502.641 278.661C501.921 279.261 501.369 280.089 500.985 281.145C500.625 282.201 500.445 283.389 500.445 284.709C500.445 286.077 500.637 287.277 501.021 288.309C501.405 289.317 501.957 290.109 502.677 290.685C503.421 291.237 504.297 291.513 505.305 291.513ZM524.148 294.393C523.14 294.393 522.228 294.201 521.412 293.817C520.596 293.409 519.948 292.821 519.468 292.053C518.988 291.261 518.748 290.265 518.748 289.065C518.748 288.177 518.904 287.397 519.216 286.725C519.552 286.053 520.056 285.477 520.728 284.997C521.424 284.517 522.312 284.121 523.392 283.809C524.472 283.497 525.792 283.233 527.352 283.017C528.24 282.897 528.96 282.777 529.512 282.657C530.088 282.537 530.508 282.345 530.772 282.081C531.036 281.793 531.168 281.373 531.168 280.821C531.168 279.909 530.856 279.141 530.232 278.517C529.608 277.893 528.624 277.581 527.28 277.581C526.584 277.581 525.876 277.701 525.156 277.941C524.436 278.181 523.8 278.589 523.248 279.165C522.72 279.717 522.384 280.497 522.24 281.505L519.216 280.497C519.408 279.633 519.72 278.853 520.152 278.157C520.608 277.461 521.184 276.873 521.88 276.393C522.576 275.889 523.38 275.505 524.292 275.241C525.228 274.977 526.26 274.845 527.388 274.845C528.948 274.845 530.244 275.109 531.276 275.637C532.332 276.165 533.112 276.981 533.616 278.085C534.144 279.165 534.408 280.557 534.408 282.261V286.401C534.408 287.145 534.42 287.961 534.444 288.849C534.492 289.713 534.552 290.589 534.624 291.477C534.696 292.341 534.768 293.157 534.84 293.925H531.816C531.744 293.157 531.672 292.389 531.6 291.621C531.552 290.853 531.516 290.085 531.492 289.317H531.024C530.664 290.205 530.184 291.033 529.584 291.801C528.984 292.569 528.228 293.193 527.316 293.673C526.428 294.153 525.372 294.393 524.148 294.393ZM525.12 291.729C525.648 291.729 526.176 291.645 526.704 291.477C527.256 291.309 527.796 291.033 528.324 290.649C528.876 290.265 529.392 289.773 529.872 289.173C530.376 288.573 530.82 287.853 531.204 287.013V283.413L532.14 283.593C531.756 283.977 531.24 284.265 530.592 284.457C529.968 284.649 529.272 284.805 528.504 284.925C527.736 285.045 526.968 285.177 526.2 285.321C525.432 285.441 524.724 285.633 524.076 285.897C523.452 286.137 522.948 286.485 522.564 286.941C522.18 287.397 521.988 288.021 521.988 288.813C521.988 289.773 522.276 290.505 522.852 291.009C523.428 291.489 524.184 291.729 525.12 291.729ZM546.56 294.393C544.976 294.393 543.62 293.973 542.492 293.133C541.364 292.293 540.5 291.141 539.9 289.677C539.324 288.213 539.036 286.533 539.036 284.637C539.036 282.741 539.324 281.061 539.9 279.597C540.476 278.133 541.316 276.981 542.42 276.141C543.524 275.301 544.88 274.881 546.488 274.881C547.808 274.881 548.888 275.157 549.728 275.709C550.568 276.261 551.24 276.981 551.744 277.869C552.272 278.733 552.656 279.681 552.896 280.713H553.544C553.424 280.017 553.316 279.297 553.22 278.553C553.124 277.785 553.04 277.041 552.968 276.321C552.896 275.577 552.86 274.917 552.86 274.341V268.725H556.172V284.745V293.925H553.22L553.4 288.885H552.824C552.536 289.965 552.128 290.925 551.6 291.765C551.072 292.581 550.4 293.229 549.584 293.709C548.768 294.165 547.76 294.393 546.56 294.393ZM547.316 291.513C548.18 291.513 548.96 291.309 549.656 290.901C550.352 290.493 550.94 289.965 551.42 289.317C551.9 288.645 552.26 287.925 552.5 287.157C552.764 286.389 552.896 285.645 552.896 284.925V284.493C552.896 283.989 552.824 283.449 552.68 282.873C552.536 282.273 552.32 281.673 552.032 281.073C551.768 280.473 551.408 279.921 550.952 279.417C550.52 278.889 550.004 278.481 549.404 278.193C548.804 277.881 548.132 277.725 547.388 277.725C546.308 277.725 545.396 278.037 544.652 278.661C543.932 279.261 543.38 280.089 542.996 281.145C542.636 282.201 542.456 283.389 542.456 284.709C542.456 286.077 542.648 287.277 543.032 288.309C543.416 289.317 543.968 290.109 544.688 290.685C545.432 291.237 546.308 291.513 547.316 291.513Z" fill="#9FBA7C"/>
<path d="M82.018 256.992C80.1246 256.992 78.418 256.699 76.898 256.112C75.4046 255.525 74.138 254.659 73.098 253.512C72.058 252.365 71.258 250.965 70.698 249.312C70.1646 247.632 69.898 245.725 69.898 243.592C69.898 241.432 70.178 239.499 70.738 237.792C71.298 236.059 72.098 234.579 73.138 233.352C74.178 232.125 75.4313 231.192 76.898 230.552C78.3646 229.885 80.0046 229.552 81.818 229.552C83.2046 229.552 84.4846 229.752 85.658 230.152C86.8313 230.525 87.8446 231.085 88.698 231.832C89.578 232.552 90.258 233.432 90.738 234.472C91.218 235.512 91.4713 236.672 91.498 237.952L88.018 238.832C88.0446 237.472 87.7646 236.352 87.178 235.472C86.5913 234.565 85.818 233.885 84.858 233.432C83.898 232.979 82.858 232.752 81.738 232.752C80.698 232.752 79.6846 232.965 78.698 233.392C77.738 233.792 76.8846 234.432 76.138 235.312C75.3913 236.165 74.7913 237.272 74.338 238.632C73.9113 239.965 73.698 241.579 73.698 243.472C73.698 245.899 74.0446 247.859 74.738 249.352C75.458 250.845 76.458 251.952 77.738 252.672C79.018 253.365 80.498 253.712 82.178 253.712C83.8046 253.712 85.1113 253.419 86.098 252.832C87.0846 252.219 87.818 251.379 88.298 250.312C88.778 249.219 89.058 247.965 89.138 246.552L92.418 247.152C92.3913 248.485 92.178 249.752 91.778 250.952C91.378 252.152 90.7646 253.205 89.938 254.112C89.1113 255.019 88.0446 255.725 86.738 256.232C85.4313 256.739 83.858 256.992 82.018 256.992ZM102.096 256.992C100.976 256.992 99.9624 256.779 99.0558 256.352C98.1491 255.899 97.4291 255.245 96.8958 254.392C96.3624 253.512 96.0958 252.405 96.0958 251.072C96.0958 250.085 96.2691 249.219 96.6158 248.472C96.9891 247.725 97.5491 247.085 98.2958 246.552C99.0691 246.019 100.056 245.579 101.256 245.232C102.456 244.885 103.922 244.592 105.656 244.352C106.642 244.219 107.442 244.085 108.056 243.952C108.696 243.819 109.162 243.605 109.456 243.312C109.749 242.992 109.896 242.525 109.896 241.912C109.896 240.899 109.549 240.045 108.856 239.352C108.162 238.659 107.069 238.312 105.576 238.312C104.802 238.312 104.016 238.445 103.216 238.712C102.416 238.979 101.709 239.432 101.096 240.072C100.509 240.685 100.136 241.552 99.9758 242.672L96.6158 241.552C96.8291 240.592 97.1758 239.725 97.6558 238.952C98.1624 238.179 98.8024 237.525 99.5758 236.992C100.349 236.432 101.242 236.005 102.256 235.712C103.296 235.419 104.442 235.272 105.696 235.272C107.429 235.272 108.869 235.565 110.016 236.152C111.189 236.739 112.056 237.645 112.616 238.872C113.202 240.072 113.496 241.619 113.496 243.512V248.112C113.496 248.939 113.509 249.845 113.536 250.832C113.589 251.792 113.656 252.765 113.736 253.752C113.816 254.712 113.896 255.619 113.976 256.472H110.616C110.536 255.619 110.456 254.765 110.376 253.912C110.322 253.059 110.282 252.205 110.256 251.352H109.736C109.336 252.339 108.802 253.259 108.136 254.112C107.469 254.965 106.629 255.659 105.616 256.192C104.629 256.725 103.456 256.992 102.096 256.992ZM103.176 254.032C103.762 254.032 104.349 253.939 104.936 253.752C105.549 253.565 106.149 253.259 106.736 252.832C107.349 252.405 107.922 251.859 108.456 251.192C109.016 250.525 109.509 249.725 109.936 248.792V244.792L110.976 244.992C110.549 245.419 109.976 245.739 109.256 245.952C108.562 246.165 107.789 246.339 106.936 246.472C106.082 246.605 105.229 246.752 104.376 246.912C103.522 247.045 102.736 247.259 102.016 247.552C101.322 247.819 100.762 248.205 100.336 248.712C99.9091 249.219 99.6958 249.912 99.6958 250.792C99.6958 251.859 100.016 252.672 100.656 253.232C101.296 253.765 102.136 254.032 103.176 254.032ZM119.601 256.472V243.672V235.792H122.841L122.481 242.352H123.161C123.508 240.779 123.975 239.472 124.561 238.432C125.148 237.365 125.868 236.579 126.721 236.072C127.601 235.539 128.601 235.272 129.721 235.272C131.055 235.272 132.148 235.605 133.001 236.272C133.855 236.912 134.481 237.752 134.881 238.792C135.308 239.832 135.521 240.979 135.521 242.232H136.161C136.455 240.739 136.908 239.472 137.521 238.432C138.135 237.392 138.895 236.605 139.801 236.072C140.708 235.539 141.748 235.272 142.921 235.272C143.988 235.272 144.921 235.485 145.721 235.912C146.521 236.339 147.201 236.979 147.761 237.832C148.321 238.659 148.735 239.685 149.001 240.912C149.268 242.139 149.401 243.552 149.401 245.152V256.472H145.761V245.632C145.761 244.059 145.615 242.752 145.321 241.712C145.028 240.645 144.588 239.859 144.001 239.352C143.441 238.819 142.721 238.552 141.841 238.552C140.855 238.552 139.961 238.899 139.161 239.592C138.388 240.259 137.748 241.205 137.241 242.432C136.761 243.632 136.441 245.005 136.281 246.552V256.472H132.721V245.992C132.721 244.339 132.575 242.965 132.281 241.872C131.988 240.779 131.548 239.952 130.961 239.392C130.401 238.832 129.668 238.552 128.761 238.552C127.695 238.552 126.775 238.925 126.001 239.672C125.228 240.392 124.601 241.365 124.121 242.592C123.668 243.819 123.375 245.192 123.241 246.712V256.472H119.601ZM166.103 256.992C164.769 256.992 163.623 256.725 162.663 256.192C161.729 255.659 160.969 254.939 160.383 254.032C159.823 253.099 159.396 252.045 159.103 250.872H158.463L158.663 256.472H155.383V246.272V228.472H159.063V234.952C159.063 235.645 159.023 236.379 158.943 237.152C158.889 237.899 158.796 238.672 158.663 239.472C158.556 240.272 158.436 241.045 158.303 241.792H159.023C159.316 240.672 159.743 239.619 160.303 238.632C160.863 237.645 161.609 236.845 162.543 236.232C163.503 235.619 164.689 235.312 166.103 235.312C167.863 235.312 169.356 235.779 170.583 236.712C171.836 237.619 172.796 238.885 173.463 240.512C174.129 242.139 174.463 244.032 174.463 246.192C174.463 248.272 174.129 250.125 173.463 251.752C172.823 253.379 171.876 254.659 170.623 255.592C169.396 256.525 167.889 256.992 166.103 256.992ZM165.223 253.792C166.369 253.792 167.343 253.485 168.143 252.872C168.943 252.259 169.556 251.379 169.983 250.232C170.436 249.085 170.663 247.752 170.663 246.232C170.663 244.739 170.449 243.419 170.023 242.272C169.596 241.099 168.983 240.179 168.183 239.512C167.383 238.819 166.396 238.472 165.223 238.472C164.369 238.472 163.609 238.645 162.943 238.992C162.276 239.312 161.689 239.752 161.183 240.312C160.703 240.872 160.303 241.485 159.983 242.152C159.663 242.819 159.423 243.485 159.263 244.152C159.103 244.819 159.023 245.432 159.023 245.992V246.472C159.023 247.272 159.156 248.099 159.423 248.952C159.716 249.805 160.129 250.605 160.663 251.352C161.196 252.072 161.849 252.659 162.623 253.112C163.396 253.565 164.263 253.792 165.223 253.792ZM179.759 256.472V235.792H183.399V256.472H179.759ZM181.599 232.192C180.745 232.192 180.105 232.019 179.679 231.672C179.252 231.325 179.039 230.805 179.039 230.112C179.039 229.419 179.252 228.899 179.679 228.552C180.105 228.205 180.732 228.032 181.559 228.032C182.412 228.032 183.052 228.205 183.479 228.552C183.905 228.899 184.119 229.419 184.119 230.112C184.119 230.779 183.905 231.299 183.479 231.672C183.052 232.019 182.425 232.192 181.599 232.192ZM198.599 256.992C196.625 256.992 194.879 256.565 193.359 255.712C191.865 254.832 190.692 253.579 189.839 251.952C189.012 250.325 188.599 248.352 188.599 246.032C188.599 243.632 189.039 241.645 189.919 240.072C190.825 238.472 192.025 237.272 193.519 236.472C195.012 235.672 196.679 235.272 198.519 235.272C200.439 235.272 202.145 235.699 203.639 236.552C205.159 237.379 206.359 238.605 207.239 240.232C208.119 241.832 208.559 243.819 208.559 246.192C208.559 248.565 208.119 250.552 207.239 252.152C206.385 253.752 205.199 254.965 203.679 255.792C202.185 256.592 200.492 256.992 198.599 256.992ZM198.759 253.992C200.039 253.992 201.132 253.685 202.039 253.072C202.972 252.432 203.679 251.539 204.159 250.392C204.665 249.245 204.919 247.885 204.919 246.312C204.919 244.685 204.652 243.285 204.119 242.112C203.612 240.912 202.879 239.992 201.919 239.352C200.959 238.685 199.799 238.352 198.439 238.352C197.212 238.352 196.132 238.645 195.199 239.232C194.265 239.819 193.545 240.685 193.039 241.832C192.532 242.952 192.279 244.325 192.279 245.952C192.279 248.459 192.852 250.432 193.999 251.872C195.172 253.285 196.759 253.992 198.759 253.992ZM65.8656 304.992C63.9723 304.992 62.2656 304.699 60.7456 304.112C59.2523 303.525 57.9856 302.659 56.9456 301.512C55.9056 300.365 55.1056 298.965 54.5456 297.312C54.0123 295.632 53.7456 293.725 53.7456 291.592C53.7456 289.432 54.0256 287.499 54.5856 285.792C55.1456 284.059 55.9456 282.579 56.9856 281.352C58.0256 280.125 59.279 279.192 60.7456 278.552C62.2123 277.885 63.8523 277.552 65.6656 277.552C67.0523 277.552 68.3323 277.752 69.5056 278.152C70.679 278.525 71.6923 279.085 72.5456 279.832C73.4256 280.552 74.1056 281.432 74.5856 282.472C75.0656 283.512 75.319 284.672 75.3456 285.952L71.8656 286.832C71.8923 285.472 71.6123 284.352 71.0256 283.472C70.439 282.565 69.6656 281.885 68.7056 281.432C67.7456 280.979 66.7056 280.752 65.5856 280.752C64.5456 280.752 63.5323 280.965 62.5456 281.392C61.5856 281.792 60.7323 282.432 59.9856 283.312C59.239 284.165 58.639 285.272 58.1856 286.632C57.759 287.965 57.5456 289.579 57.5456 291.472C57.5456 293.899 57.8923 295.859 58.5856 297.352C59.3056 298.845 60.3056 299.952 61.5856 300.672C62.8656 301.365 64.3456 301.712 66.0256 301.712C67.6523 301.712 68.959 301.419 69.9456 300.832C70.9323 300.219 71.6656 299.379 72.1456 298.312C72.6256 297.219 72.9056 295.965 72.9856 294.552L76.2656 295.152C76.239 296.485 76.0256 297.752 75.6256 298.952C75.2256 300.152 74.6123 301.205 73.7856 302.112C72.959 303.019 71.8923 303.725 70.5856 304.232C69.279 304.739 67.7056 304.992 65.8656 304.992ZM81.1053 304.472V276.472H84.7453V304.472H81.1053ZM91.0672 304.472V283.792H94.7072V304.472H91.0672ZM92.9072 280.192C92.0539 280.192 91.4139 280.019 90.9872 279.672C90.5605 279.325 90.3472 278.805 90.3472 278.112C90.3472 277.419 90.5605 276.899 90.9872 276.552C91.4139 276.205 92.0405 276.032 92.8672 276.032C93.7205 276.032 94.3605 276.205 94.7872 276.552C95.2139 276.899 95.4272 277.419 95.4272 278.112C95.4272 278.779 95.2139 279.299 94.7872 279.672C94.3605 280.019 93.7339 280.192 92.9072 280.192ZM101.027 304.472V291.672V283.792H104.267L103.907 290.352H104.587C104.934 288.779 105.401 287.472 105.987 286.432C106.574 285.365 107.294 284.579 108.147 284.072C109.027 283.539 110.027 283.272 111.147 283.272C112.481 283.272 113.574 283.605 114.427 284.272C115.281 284.912 115.907 285.752 116.307 286.792C116.734 287.832 116.947 288.979 116.947 290.232H117.587C117.881 288.739 118.334 287.472 118.947 286.432C119.561 285.392 120.321 284.605 121.227 284.072C122.134 283.539 123.174 283.272 124.347 283.272C125.414 283.272 126.347 283.485 127.147 283.912C127.947 284.339 128.627 284.979 129.187 285.832C129.747 286.659 130.161 287.685 130.427 288.912C130.694 290.139 130.827 291.552 130.827 293.152V304.472H127.187V293.632C127.187 292.059 127.041 290.752 126.747 289.712C126.454 288.645 126.014 287.859 125.427 287.352C124.867 286.819 124.147 286.552 123.267 286.552C122.281 286.552 121.387 286.899 120.587 287.592C119.814 288.259 119.174 289.205 118.667 290.432C118.187 291.632 117.867 293.005 117.707 294.552V304.472H114.147V293.992C114.147 292.339 114.001 290.965 113.707 289.872C113.414 288.779 112.974 287.952 112.387 287.392C111.827 286.832 111.094 286.552 110.187 286.552C109.121 286.552 108.201 286.925 107.427 287.672C106.654 288.392 106.027 289.365 105.547 290.592C105.094 291.819 104.801 293.192 104.667 294.712V304.472H101.027ZM141.568 304.992C140.448 304.992 139.435 304.779 138.528 304.352C137.622 303.899 136.902 303.245 136.368 302.392C135.835 301.512 135.568 300.405 135.568 299.072C135.568 298.085 135.742 297.219 136.088 296.472C136.462 295.725 137.022 295.085 137.768 294.552C138.542 294.019 139.528 293.579 140.728 293.232C141.928 292.885 143.395 292.592 145.128 292.352C146.115 292.219 146.915 292.085 147.528 291.952C148.168 291.819 148.635 291.605 148.928 291.312C149.222 290.992 149.368 290.525 149.368 289.912C149.368 288.899 149.022 288.045 148.328 287.352C147.635 286.659 146.542 286.312 145.048 286.312C144.275 286.312 143.488 286.445 142.688 286.712C141.888 286.979 141.182 287.432 140.568 288.072C139.982 288.685 139.608 289.552 139.448 290.672L136.088 289.552C136.302 288.592 136.648 287.725 137.128 286.952C137.635 286.179 138.275 285.525 139.048 284.992C139.822 284.432 140.715 284.005 141.728 283.712C142.768 283.419 143.915 283.272 145.168 283.272C146.902 283.272 148.342 283.565 149.488 284.152C150.662 284.739 151.528 285.645 152.088 286.872C152.675 288.072 152.968 289.619 152.968 291.512V296.112C152.968 296.939 152.982 297.845 153.008 298.832C153.062 299.792 153.128 300.765 153.208 301.752C153.288 302.712 153.368 303.619 153.448 304.472H150.088C150.008 303.619 149.928 302.765 149.848 301.912C149.795 301.059 149.755 300.205 149.728 299.352H149.208C148.808 300.339 148.275 301.259 147.608 302.112C146.942 302.965 146.102 303.659 145.088 304.192C144.102 304.725 142.928 304.992 141.568 304.992ZM142.648 302.032C143.235 302.032 143.822 301.939 144.408 301.752C145.022 301.565 145.622 301.259 146.208 300.832C146.822 300.405 147.395 299.859 147.928 299.192C148.488 298.525 148.982 297.725 149.408 296.792V292.792L150.448 292.992C150.022 293.419 149.448 293.739 148.728 293.952C148.035 294.165 147.262 294.339 146.408 294.472C145.555 294.605 144.702 294.752 143.848 294.912C142.995 295.045 142.208 295.259 141.488 295.552C140.795 295.819 140.235 296.205 139.808 296.712C139.382 297.219 139.168 297.912 139.168 298.792C139.168 299.859 139.488 300.672 140.128 301.232C140.768 301.765 141.608 302.032 142.648 302.032ZM165.514 304.872C163.594 304.872 162.167 304.352 161.234 303.312C160.301 302.272 159.834 300.685 159.834 298.552V286.832H156.714L156.754 283.792H158.714C159.381 283.792 159.861 283.672 160.154 283.432C160.474 283.192 160.661 282.792 160.714 282.232L161.114 279.112H163.354V283.792H169.314V286.872H163.354V298.472C163.354 299.539 163.594 300.312 164.074 300.792C164.581 301.245 165.301 301.472 166.234 301.472C166.741 301.472 167.261 301.405 167.794 301.272C168.354 301.139 168.901 300.872 169.434 300.472V304.112C168.661 304.405 167.941 304.605 167.274 304.712C166.634 304.819 166.047 304.872 165.514 304.872ZM173.958 304.472V283.792H177.598V304.472H173.958ZM175.798 280.192C174.944 280.192 174.304 280.019 173.878 279.672C173.451 279.325 173.238 278.805 173.238 278.112C173.238 277.419 173.451 276.899 173.878 276.552C174.304 276.205 174.931 276.032 175.758 276.032C176.611 276.032 177.251 276.205 177.678 276.552C178.104 276.899 178.318 277.419 178.318 278.112C178.318 278.779 178.104 279.299 177.678 279.672C177.251 280.019 176.624 280.192 175.798 280.192ZM192.798 304.992C190.984 304.992 189.438 304.699 188.158 304.112C186.904 303.525 185.878 302.739 185.078 301.752C184.304 300.765 183.731 299.632 183.358 298.352C183.011 297.072 182.838 295.739 182.838 294.352C182.838 292.832 183.038 291.405 183.438 290.072C183.838 288.739 184.438 287.565 185.238 286.552C186.064 285.512 187.078 284.712 188.278 284.152C189.504 283.565 190.931 283.272 192.558 283.272C194.131 283.272 195.518 283.552 196.718 284.112C197.918 284.645 198.891 285.405 199.638 286.392C200.411 287.379 200.904 288.552 201.118 289.912L197.638 290.872C197.584 290.125 197.358 289.405 196.958 288.712C196.584 288.019 196.024 287.459 195.278 287.032C194.531 286.579 193.611 286.352 192.518 286.352C191.478 286.352 190.584 286.552 189.838 286.952C189.118 287.352 188.504 287.912 187.998 288.632C187.518 289.352 187.144 290.192 186.878 291.152C186.638 292.112 186.518 293.152 186.518 294.272C186.518 295.819 186.731 297.165 187.158 298.312C187.611 299.459 188.304 300.352 189.238 300.992C190.171 301.632 191.371 301.952 192.838 301.952C193.931 301.952 194.864 301.765 195.638 301.392C196.411 300.992 197.024 300.445 197.478 299.752C197.931 299.032 198.224 298.192 198.358 297.232L201.718 297.992C201.531 299.139 201.184 300.152 200.678 301.032C200.171 301.912 199.531 302.645 198.758 303.232C197.984 303.792 197.091 304.219 196.078 304.512C195.091 304.832 193.998 304.992 192.798 304.992ZM214.751 304.992C212.778 304.992 211.031 304.565 209.511 303.712C208.018 302.832 206.844 301.579 205.991 299.952C205.164 298.325 204.751 296.352 204.751 294.032C204.751 291.632 205.191 289.645 206.071 288.072C206.978 286.472 208.178 285.272 209.671 284.472C211.164 283.672 212.831 283.272 214.671 283.272C216.591 283.272 218.298 283.699 219.791 284.552C221.311 285.379 222.511 286.605 223.391 288.232C224.271 289.832 224.711 291.819 224.711 294.192C224.711 296.565 224.271 298.552 223.391 300.152C222.538 301.752 221.351 302.965 219.831 303.792C218.338 304.592 216.644 304.992 214.751 304.992ZM214.911 301.992C216.191 301.992 217.284 301.685 218.191 301.072C219.124 300.432 219.831 299.539 220.311 298.392C220.818 297.245 221.071 295.885 221.071 294.312C221.071 292.685 220.804 291.285 220.271 290.112C219.764 288.912 219.031 287.992 218.071 287.352C217.111 286.685 215.951 286.352 214.591 286.352C213.364 286.352 212.284 286.645 211.351 287.232C210.418 287.819 209.698 288.685 209.191 289.832C208.684 290.952 208.431 292.325 208.431 293.952C208.431 296.459 209.004 298.432 210.151 299.872C211.324 301.285 212.911 301.992 214.911 301.992Z" fill="#DDAF85"/>
<path d="M468.937 138.137V146.167C468.937 156.139 459.31 164.223 447.435 164.223H396.463C390.725 164.222 385.427 161.638 382.584 157.452C379.964 152.901 381.041 147.457 385.272 143.861C386.721 142.448 386.985 140.432 385.938 138.787C381.74 132.201 373.144 114.457 380.374 87.7796C380.669 86.6895 381.869 85.9446 383.197 86.0282C384.476 86.1917 385.48 87.0348 385.675 88.1091C391.208 102.06 398.793 115.376 408.252 127.751L417.864 121.738C416.941 118.67 416.285 115.551 415.901 112.403C415.441 110.409 416.303 108.362 418.154 107.054C420.245 105.831 423.809 107.465 424.605 108.038L429.98 111.992C431.968 113.461 434.933 113.495 436.968 112.074C437.936 111.397 443.559 107.799 443.559 107.799L439.694 96.4418C438.74 93.663 439.43 90.6689 441.548 88.389L456.035 72.5902C456.73 71.813 457.938 71.496 459.036 71.8032C460.133 72.1104 460.873 72.9729 460.873 73.9444V96.5141C468.152 88.6733 477.538 82.9722 498.502 82.9722H501.19M399.054 150.681H404.43M461.658 159.709H469.055C477.962 159.709 485.182 165.772 485.182 173.251L485.182 175.508M386.492 141.504C400.038 142.949 409.214 139.396 408.214 127.746M417.826 121.733C428.964 124.816 435.565 120.257 432.292 112.963M423.244 138.268C423.244 138.891 423.846 139.396 424.588 139.396C425.331 139.396 425.932 138.891 425.932 138.268C425.932 137.645 425.331 137.139 424.588 137.139C423.846 137.139 423.244 137.645 423.244 138.268Z" stroke="#9FBA7C" stroke-width="3" stroke-linecap="round" stroke-linejoin="round"/>
<path d="M78.3654 112.077V59.7807L96.0111 49.5264H119.539L137.184 59.7807V92.5944M78.3654 59.7807L96.0111 70.0349M96.0111 70.0349H119.539M96.0111 70.0349V82.34M119.539 70.0349L137.184 59.7807M119.539 70.0349V102.849M119.539 102.849L137.184 113.103M78.3654 138.68V113.103L96.0111 102.849H119.539M119.539 102.849L137.184 92.5944M178.358 138.739V102.849L160.712 92.5944H137.184M78.3654 113.103L96.0111 123.357M96.0111 123.357H119.539M96.0111 123.357V138.734M119.539 123.357L137.184 113.103M119.539 123.357V134.081M137.184 113.103V148.993M137.184 113.103H160.712M137.184 148.993L154.83 138.739H178.358M137.184 148.993L154.83 159.247H178.358L196.003 148.993M137.184 148.993H113.657M160.712 113.103L178.358 102.849M160.712 113.103V124.854M196.003 148.993L178.358 138.739M196.003 148.993H210.708M178.358 138.739L196.003 128.484H210.708M78.3654 159.247H96.0111L113.657 148.993M113.657 148.993L96.0111 138.739H78.3654M210.708 51.8319C203.322 51.8319 197.32 48.6125 193.165 44.1859C189.01 48.6125 183.009 51.8319 175.623 51.8319C168.236 51.8319 162.234 48.6125 158.079 44.1859C155.786 46.7566 152.561 48.9217 148.902 50.2498M158.945 75.4345C164.162 74.6765 168.944 72.0236 171.988 68.6129C175.9 72.7816 181.552 75.8134 188.509 75.8134C195.465 75.8134 201.117 72.7816 205.03 68.6129C206.334 70.1287 208.073 71.6447 210.247 72.7816" stroke="#DDAF85" stroke-width="3" stroke-linecap="round" stroke-linejoin="round"/>
</svg>
