<svg width="604" height="343" viewBox="0 0 604 343" fill="none" xmlns="http://www.w3.org/2000/svg">
<path fill-rule="evenodd" clip-rule="evenodd" d="M196.75 170.376C196.75 172.078 198.086 173.458 199.733 173.458C201.381 173.458 202.717 172.078 202.717 170.376C202.717 168.673 201.381 167.293 199.733 167.293C198.086 167.293 196.75 168.673 196.75 170.376Z" stroke="white" stroke-width="3" stroke-linecap="round" stroke-linejoin="round"/>
<path fill-rule="evenodd" clip-rule="evenodd" d="M144.234 48.6154C147.646 42.4503 156.178 42.4503 159.59 48.6154L240.299 195.036C243.712 201.201 239.446 208.907 232.621 208.907H71.3792C64.5542 208.907 60.2885 201.201 63.7011 195.036L144.234 48.6154ZM149.017 71.7344C149.017 73.4369 150.352 74.817 152 74.817C153.648 74.817 154.983 73.4369 154.983 71.7344C154.983 70.032 153.648 68.6519 152 68.6519C150.352 68.6519 149.017 70.032 149.017 71.7344ZM149.017 198.118C149.017 199.821 150.352 201.201 152 201.201C153.648 201.201 154.983 199.821 154.983 198.118C154.983 196.416 153.648 195.036 152 195.036C150.352 195.036 149.017 196.416 149.017 198.118Z" fill="#231F20" stroke="white" stroke-width="3" stroke-linecap="round" stroke-linejoin="round"/>
<path fill-rule="evenodd" clip-rule="evenodd" d="M1.5 231.562C1.5 228.587 6.31295 226.175 12.25 226.175H291.75C297.687 226.175 302.5 228.587 302.5 231.562M1.5 231.562V323.138ZM302.5 231.562V323.138ZM302.5 323.138C302.5 326.113 297.687 328.525 291.75 328.525H12.25C6.31295 328.525 1.5 326.113 1.5 323.138M148.417 231.562C148.417 232.553 150.021 233.357 152 233.357C153.979 233.357 155.583 232.553 155.583 231.562C155.583 230.57 153.979 229.766 152 229.766C150.021 229.766 148.417 230.57 148.417 231.562ZM148.417 323.138C148.417 324.13 150.021 324.934 152 324.934C153.979 324.934 155.583 324.13 155.583 323.138C155.583 322.146 153.979 321.342 152 321.342C150.021 321.342 148.417 322.146 148.417 323.138Z" stroke="white" stroke-width="3" stroke-linecap="round" stroke-linejoin="round"/>
<path fill-rule="evenodd" clip-rule="evenodd" d="M359.093 111.436C356.969 107.539 356.969 102.737 359.093 98.8392L408.705 7.79836C410.829 3.90094 414.754 1.5 419.002 1.5H518.227C522.475 1.5 526.4 3.90094 528.524 7.79836L578.136 98.8392C580.26 102.737 580.26 107.539 578.136 111.436L528.524 202.477C526.4 206.374 522.475 208.775 518.227 208.775H419.002C414.754 208.775 410.829 206.374 408.705 202.477L359.093 111.436ZM464.646 16.6138C464.646 18.9987 466.423 20.9321 468.615 20.9321C470.806 20.9321 472.583 18.9987 472.583 16.6138C472.583 14.2289 470.806 12.2956 468.615 12.2956C466.423 12.2956 464.646 14.2289 464.646 16.6138ZM464.646 193.661C464.646 196.046 466.423 197.98 468.615 197.98C470.806 197.98 472.583 196.046 472.583 193.661C472.583 191.277 470.806 189.343 468.615 189.343C466.423 189.343 464.646 191.277 464.646 193.661Z" fill="#231F20" stroke="#B36774" stroke-width="3" stroke-linecap="round" stroke-linejoin="round"/>
<path fill-rule="evenodd" clip-rule="evenodd" d="M333.5 238.837C333.5 231.844 337.801 226.175 343.107 226.175H592.893C598.199 226.175 602.5 231.844 602.5 238.837M333.5 238.837V314.808ZM602.5 238.837V314.808ZM602.5 314.808C602.5 321.801 598.199 328.525 592.893 328.525C495.345 328.525 440.655 328.525 343.107 328.525C337.801 328.525 333.5 321.801 333.5 314.808M464.798 238.837C464.798 241.168 466.231 243.057 468 243.057C469.769 243.057 471.202 241.168 471.202 238.837C471.202 236.506 469.769 234.616 468 234.616C466.231 234.616 464.798 236.506 464.798 238.837ZM464.798 316.918C464.798 319.249 466.231 321.139 468 321.139C469.769 321.139 471.202 319.249 471.202 316.918C471.202 314.587 469.769 312.698 468 312.698C466.231 312.698 464.798 314.587 464.798 316.918Z" stroke="#B36774" stroke-width="3" stroke-linecap="round" stroke-linejoin="round"/>
<path d="M354.418 284.446L362.797 260.325H366.879L356.352 288.762H353.441L354.418 284.446ZM346.586 260.325L354.887 284.446L355.922 288.762H353.012L342.504 260.325H346.586ZM382.543 283.88V267.63H386.176V288.762H382.719L382.543 283.88ZM383.227 279.426L384.73 279.387C384.73 280.794 384.581 282.096 384.281 283.294C383.995 284.478 383.526 285.507 382.875 286.38C382.224 287.252 381.371 287.936 380.316 288.43C379.262 288.912 377.979 289.153 376.469 289.153C375.44 289.153 374.496 289.003 373.637 288.704C372.79 288.404 372.061 287.942 371.449 287.317C370.837 286.692 370.362 285.878 370.023 284.876C369.698 283.873 369.535 282.669 369.535 281.262V267.63H373.148V281.301C373.148 282.252 373.253 283.04 373.461 283.665C373.682 284.277 373.975 284.765 374.34 285.13C374.717 285.481 375.134 285.728 375.59 285.872C376.059 286.015 376.54 286.087 377.035 286.087C378.572 286.087 379.789 285.794 380.688 285.208C381.586 284.609 382.23 283.808 382.621 282.805C383.025 281.79 383.227 280.663 383.227 279.426ZM395.609 258.762V288.762H391.977V258.762H395.609ZM405.023 272.141V288.762H401.41V267.63H404.828L405.023 272.141ZM404.164 277.395L402.66 277.337C402.673 275.891 402.888 274.557 403.305 273.333C403.721 272.096 404.307 271.021 405.062 270.11C405.818 269.199 406.716 268.495 407.758 268.001C408.812 267.493 409.978 267.239 411.254 267.239C412.296 267.239 413.233 267.382 414.066 267.669C414.9 267.942 415.609 268.385 416.195 268.997C416.794 269.609 417.25 270.403 417.562 271.38C417.875 272.343 418.031 273.521 418.031 274.915V288.762H414.398V274.876C414.398 273.769 414.236 272.883 413.91 272.219C413.585 271.542 413.109 271.054 412.484 270.755C411.859 270.442 411.091 270.286 410.18 270.286C409.281 270.286 408.461 270.475 407.719 270.852C406.99 271.23 406.358 271.751 405.824 272.415C405.303 273.079 404.893 273.84 404.594 274.7C404.307 275.546 404.164 276.445 404.164 277.395ZM432.289 289.153C430.818 289.153 429.483 288.906 428.285 288.411C427.1 287.903 426.078 287.193 425.219 286.282C424.372 285.37 423.721 284.29 423.266 283.04C422.81 281.79 422.582 280.422 422.582 278.938V278.118C422.582 276.399 422.836 274.869 423.344 273.528C423.852 272.174 424.542 271.028 425.414 270.09C426.286 269.153 427.276 268.443 428.383 267.962C429.49 267.48 430.635 267.239 431.82 267.239C433.331 267.239 434.633 267.499 435.727 268.02C436.833 268.541 437.738 269.27 438.441 270.208C439.145 271.132 439.665 272.226 440.004 273.489C440.342 274.739 440.512 276.106 440.512 277.59V279.212H424.73V276.262H436.898V275.989C436.846 275.051 436.651 274.14 436.312 273.255C435.987 272.369 435.466 271.64 434.75 271.067C434.034 270.494 433.057 270.208 431.82 270.208C431 270.208 430.245 270.383 429.555 270.735C428.865 271.074 428.272 271.581 427.777 272.258C427.283 272.936 426.898 273.762 426.625 274.739C426.352 275.715 426.215 276.842 426.215 278.118V278.938C426.215 279.941 426.352 280.885 426.625 281.77C426.911 282.643 427.322 283.411 427.855 284.075C428.402 284.739 429.06 285.26 429.828 285.637C430.609 286.015 431.495 286.204 432.484 286.204C433.76 286.204 434.841 285.943 435.727 285.422C436.612 284.902 437.387 284.205 438.051 283.333L440.238 285.071C439.783 285.761 439.203 286.419 438.5 287.044C437.797 287.669 436.931 288.176 435.902 288.567C434.887 288.958 433.682 289.153 432.289 289.153ZM448.344 270.95V288.762H444.73V267.63H448.246L448.344 270.95ZM454.945 267.512L454.926 270.872C454.626 270.807 454.34 270.768 454.066 270.755C453.806 270.728 453.507 270.715 453.168 270.715C452.335 270.715 451.599 270.846 450.961 271.106C450.323 271.366 449.783 271.731 449.34 272.2C448.897 272.669 448.546 273.228 448.285 273.88C448.038 274.518 447.875 275.221 447.797 275.989L446.781 276.575C446.781 275.299 446.905 274.101 447.152 272.981C447.413 271.861 447.81 270.872 448.344 270.012C448.878 269.14 449.555 268.463 450.375 267.981C451.208 267.486 452.198 267.239 453.344 267.239C453.604 267.239 453.904 267.271 454.242 267.337C454.581 267.389 454.815 267.447 454.945 267.512ZM469.965 285.149V274.27C469.965 273.437 469.796 272.714 469.457 272.102C469.132 271.477 468.637 270.995 467.973 270.657C467.309 270.318 466.488 270.149 465.512 270.149C464.6 270.149 463.799 270.305 463.109 270.618C462.432 270.93 461.898 271.34 461.508 271.848C461.13 272.356 460.941 272.903 460.941 273.489H457.328C457.328 272.734 457.523 271.985 457.914 271.243C458.305 270.501 458.865 269.83 459.594 269.231C460.336 268.619 461.221 268.137 462.25 267.786C463.292 267.421 464.451 267.239 465.727 267.239C467.263 267.239 468.617 267.499 469.789 268.02C470.974 268.541 471.898 269.329 472.562 270.383C473.24 271.425 473.578 272.734 473.578 274.309V284.153C473.578 284.856 473.637 285.605 473.754 286.399C473.884 287.193 474.073 287.877 474.32 288.45V288.762H470.551C470.368 288.346 470.225 287.792 470.121 287.102C470.017 286.399 469.965 285.748 469.965 285.149ZM470.59 275.95L470.629 278.489H466.977C465.948 278.489 465.03 278.574 464.223 278.743C463.415 278.899 462.738 279.14 462.191 279.465C461.645 279.791 461.228 280.201 460.941 280.696C460.655 281.178 460.512 281.744 460.512 282.395C460.512 283.059 460.661 283.665 460.961 284.212C461.26 284.758 461.71 285.195 462.309 285.52C462.921 285.833 463.669 285.989 464.555 285.989C465.661 285.989 466.638 285.755 467.484 285.286C468.331 284.817 469.001 284.244 469.496 283.567C470.004 282.89 470.277 282.232 470.316 281.594L471.859 283.333C471.768 283.88 471.521 284.485 471.117 285.149C470.714 285.813 470.173 286.451 469.496 287.063C468.832 287.662 468.038 288.163 467.113 288.567C466.202 288.958 465.173 289.153 464.027 289.153C462.595 289.153 461.339 288.873 460.258 288.313C459.19 287.753 458.357 287.005 457.758 286.067C457.172 285.116 456.879 284.055 456.879 282.883C456.879 281.751 457.1 280.755 457.543 279.895C457.986 279.023 458.624 278.3 459.457 277.727C460.29 277.141 461.293 276.699 462.465 276.399C463.637 276.1 464.945 275.95 466.391 275.95H470.59ZM479.242 258.762H482.875V284.661L482.562 288.762H479.242V258.762ZM497.152 278.02V278.43C497.152 279.967 496.97 281.393 496.605 282.708C496.241 284.01 495.707 285.143 495.004 286.106C494.301 287.07 493.441 287.818 492.426 288.352C491.41 288.886 490.245 289.153 488.93 289.153C487.589 289.153 486.41 288.925 485.395 288.469C484.392 288.001 483.546 287.33 482.855 286.458C482.165 285.585 481.612 284.531 481.195 283.294C480.792 282.057 480.512 280.663 480.355 279.114V277.317C480.512 275.755 480.792 274.355 481.195 273.118C481.612 271.881 482.165 270.826 482.855 269.954C483.546 269.068 484.392 268.398 485.395 267.942C486.397 267.473 487.562 267.239 488.891 267.239C490.219 267.239 491.397 267.499 492.426 268.02C493.454 268.528 494.314 269.257 495.004 270.208C495.707 271.158 496.241 272.297 496.605 273.626C496.97 274.941 497.152 276.406 497.152 278.02ZM493.52 278.43V278.02C493.52 276.965 493.422 275.976 493.227 275.051C493.031 274.114 492.719 273.294 492.289 272.59C491.859 271.874 491.293 271.314 490.59 270.911C489.887 270.494 489.021 270.286 487.992 270.286C487.081 270.286 486.286 270.442 485.609 270.755C484.945 271.067 484.379 271.49 483.91 272.024C483.441 272.545 483.057 273.144 482.758 273.821C482.471 274.485 482.257 275.175 482.113 275.891V280.598C482.322 281.51 482.66 282.389 483.129 283.235C483.611 284.068 484.249 284.752 485.043 285.286C485.85 285.82 486.846 286.087 488.031 286.087C489.008 286.087 489.841 285.891 490.531 285.501C491.234 285.097 491.801 284.544 492.23 283.84C492.673 283.137 492.999 282.324 493.207 281.399C493.415 280.475 493.52 279.485 493.52 278.43ZM505.648 267.63V288.762H502.016V267.63H505.648ZM501.742 262.024C501.742 261.438 501.918 260.943 502.27 260.54C502.634 260.136 503.168 259.934 503.871 259.934C504.561 259.934 505.089 260.136 505.453 260.54C505.831 260.943 506.02 261.438 506.02 262.024C506.02 262.584 505.831 263.066 505.453 263.469C505.089 263.86 504.561 264.055 503.871 264.055C503.168 264.055 502.634 263.86 502.27 263.469C501.918 263.066 501.742 262.584 501.742 262.024ZM515.375 258.762V288.762H511.742V258.762H515.375ZM525.102 267.63V288.762H521.469V267.63H525.102ZM521.195 262.024C521.195 261.438 521.371 260.943 521.723 260.54C522.087 260.136 522.621 259.934 523.324 259.934C524.014 259.934 524.542 260.136 524.906 260.54C525.284 260.943 525.473 261.438 525.473 262.024C525.473 262.584 525.284 263.066 524.906 263.469C524.542 263.86 524.014 264.055 523.324 264.055C522.621 264.055 522.087 263.86 521.723 263.469C521.371 263.066 521.195 262.584 521.195 262.024ZM544.223 284.661V258.762H547.855V288.762H544.535L544.223 284.661ZM530.004 278.43V278.02C530.004 276.406 530.199 274.941 530.59 273.626C530.993 272.297 531.56 271.158 532.289 270.208C533.031 269.257 533.91 268.528 534.926 268.02C535.954 267.499 537.1 267.239 538.363 267.239C539.691 267.239 540.85 267.473 541.84 267.942C542.842 268.398 543.689 269.068 544.379 269.954C545.082 270.826 545.635 271.881 546.039 273.118C546.443 274.355 546.723 275.755 546.879 277.317V279.114C546.736 280.663 546.456 282.057 546.039 283.294C545.635 284.531 545.082 285.585 544.379 286.458C543.689 287.33 542.842 288.001 541.84 288.469C540.837 288.925 539.665 289.153 538.324 289.153C537.087 289.153 535.954 288.886 534.926 288.352C533.91 287.818 533.031 287.07 532.289 286.106C531.56 285.143 530.993 284.01 530.59 282.708C530.199 281.393 530.004 279.967 530.004 278.43ZM533.637 278.02V278.43C533.637 279.485 533.741 280.475 533.949 281.399C534.171 282.324 534.509 283.137 534.965 283.84C535.421 284.544 536 285.097 536.703 285.501C537.406 285.891 538.246 286.087 539.223 286.087C540.421 286.087 541.404 285.833 542.172 285.325C542.953 284.817 543.578 284.146 544.047 283.313C544.516 282.48 544.88 281.575 545.141 280.598V275.891C544.984 275.175 544.757 274.485 544.457 273.821C544.171 273.144 543.793 272.545 543.324 272.024C542.868 271.49 542.302 271.067 541.625 270.755C540.961 270.442 540.173 270.286 539.262 270.286C538.272 270.286 537.419 270.494 536.703 270.911C536 271.314 535.421 271.874 534.965 272.59C534.509 273.294 534.171 274.114 533.949 275.051C533.741 275.976 533.637 276.965 533.637 278.02ZM565.941 285.149V274.27C565.941 273.437 565.772 272.714 565.434 272.102C565.108 271.477 564.613 270.995 563.949 270.657C563.285 270.318 562.465 270.149 561.488 270.149C560.577 270.149 559.776 270.305 559.086 270.618C558.409 270.93 557.875 271.34 557.484 271.848C557.107 272.356 556.918 272.903 556.918 273.489H553.305C553.305 272.734 553.5 271.985 553.891 271.243C554.281 270.501 554.841 269.83 555.57 269.231C556.312 268.619 557.198 268.137 558.227 267.786C559.268 267.421 560.427 267.239 561.703 267.239C563.24 267.239 564.594 267.499 565.766 268.02C566.951 268.541 567.875 269.329 568.539 270.383C569.216 271.425 569.555 272.734 569.555 274.309V284.153C569.555 284.856 569.613 285.605 569.73 286.399C569.861 287.193 570.049 287.877 570.297 288.45V288.762H566.527C566.345 288.346 566.202 287.792 566.098 287.102C565.993 286.399 565.941 285.748 565.941 285.149ZM566.566 275.95L566.605 278.489H562.953C561.924 278.489 561.007 278.574 560.199 278.743C559.392 278.899 558.715 279.14 558.168 279.465C557.621 279.791 557.204 280.201 556.918 280.696C556.632 281.178 556.488 281.744 556.488 282.395C556.488 283.059 556.638 283.665 556.938 284.212C557.237 284.758 557.686 285.195 558.285 285.52C558.897 285.833 559.646 285.989 560.531 285.989C561.638 285.989 562.615 285.755 563.461 285.286C564.307 284.817 564.978 284.244 565.473 283.567C565.98 282.89 566.254 282.232 566.293 281.594L567.836 283.333C567.745 283.88 567.497 284.485 567.094 285.149C566.69 285.813 566.15 286.451 565.473 287.063C564.809 287.662 564.014 288.163 563.09 288.567C562.178 288.958 561.15 289.153 560.004 289.153C558.572 289.153 557.315 288.873 556.234 288.313C555.167 287.753 554.333 287.005 553.734 286.067C553.148 285.116 552.855 284.055 552.855 282.883C552.855 281.751 553.077 280.755 553.52 279.895C553.962 279.023 554.6 278.3 555.434 277.727C556.267 277.141 557.27 276.699 558.441 276.399C559.613 276.1 560.922 275.95 562.367 275.95H566.566ZM588.559 284.661V258.762H592.191V288.762H588.871L588.559 284.661ZM574.34 278.43V278.02C574.34 276.406 574.535 274.941 574.926 273.626C575.329 272.297 575.896 271.158 576.625 270.208C577.367 269.257 578.246 268.528 579.262 268.02C580.29 267.499 581.436 267.239 582.699 267.239C584.027 267.239 585.186 267.473 586.176 267.942C587.178 268.398 588.025 269.068 588.715 269.954C589.418 270.826 589.971 271.881 590.375 273.118C590.779 274.355 591.059 275.755 591.215 277.317V279.114C591.072 280.663 590.792 282.057 590.375 283.294C589.971 284.531 589.418 285.585 588.715 286.458C588.025 287.33 587.178 288.001 586.176 288.469C585.173 288.925 584.001 289.153 582.66 289.153C581.423 289.153 580.29 288.886 579.262 288.352C578.246 287.818 577.367 287.07 576.625 286.106C575.896 285.143 575.329 284.01 574.926 282.708C574.535 281.393 574.34 279.967 574.34 278.43ZM577.973 278.02V278.43C577.973 279.485 578.077 280.475 578.285 281.399C578.507 282.324 578.845 283.137 579.301 283.84C579.757 284.544 580.336 285.097 581.039 285.501C581.742 285.891 582.582 286.087 583.559 286.087C584.757 286.087 585.74 285.833 586.508 285.325C587.289 284.817 587.914 284.146 588.383 283.313C588.852 282.48 589.216 281.575 589.477 280.598V275.891C589.32 275.175 589.092 274.485 588.793 273.821C588.507 273.144 588.129 272.545 587.66 272.024C587.204 271.49 586.638 271.067 585.961 270.755C585.297 270.442 584.509 270.286 583.598 270.286C582.608 270.286 581.755 270.494 581.039 270.911C580.336 271.314 579.757 271.874 579.301 272.59C578.845 273.294 578.507 274.114 578.285 275.051C578.077 275.976 577.973 276.965 577.973 278.02Z" fill="#B36774"/>
<path d="M37.627 281.766H41.377C41.1817 283.563 40.6674 285.171 39.834 286.591C39.0007 288.01 37.8223 289.136 36.2989 289.969C34.7754 290.79 32.8744 291.2 30.5957 291.2C28.9291 291.2 27.4122 290.887 26.045 290.262C24.6908 289.637 23.5254 288.752 22.5489 287.606C21.5723 286.447 20.8171 285.061 20.2832 283.446C19.7624 281.818 19.502 280.009 19.502 278.016V275.184C19.502 273.192 19.7624 271.389 20.2832 269.774C20.8171 268.147 21.5788 266.753 22.5684 265.594C23.571 264.436 24.7754 263.544 26.1817 262.919C27.5879 262.294 29.17 261.981 30.9278 261.981C33.0762 261.981 34.8926 262.385 36.377 263.192C37.8614 263.999 39.0137 265.119 39.834 266.552C40.6674 267.971 41.1817 269.618 41.377 271.493H37.627C37.4447 270.165 37.1062 269.025 36.6114 268.075C36.1166 267.111 35.4135 266.369 34.502 265.848C33.5905 265.328 32.3991 265.067 30.9278 265.067C29.6648 265.067 28.5515 265.308 27.5879 265.79C26.6374 266.272 25.8366 266.955 25.1856 267.841C24.5476 268.726 24.0658 269.787 23.7403 271.024C23.4148 272.261 23.252 273.635 23.252 275.145V278.016C23.252 279.41 23.3952 280.718 23.6817 281.942C23.9812 283.166 24.4304 284.24 25.0293 285.165C25.6283 286.089 26.39 286.818 27.3145 287.352C28.239 287.873 29.3327 288.134 30.5957 288.134C32.1973 288.134 33.4734 287.88 34.4239 287.372C35.3744 286.864 36.0905 286.135 36.5723 285.184C37.0671 284.234 37.4187 283.094 37.627 281.766ZM45.0098 280.477V280.028C45.0098 278.505 45.2312 277.092 45.6739 275.79C46.1166 274.475 46.7546 273.335 47.5879 272.372C48.4213 271.395 49.4304 270.64 50.6153 270.106C51.8002 269.559 53.1283 269.286 54.5997 269.286C56.084 269.286 57.4187 269.559 58.6036 270.106C59.8015 270.64 60.8171 271.395 61.6504 272.372C62.4968 273.335 63.1413 274.475 63.584 275.79C64.0267 277.092 64.2481 278.505 64.2481 280.028V280.477C64.2481 282.001 64.0267 283.413 63.584 284.716C63.1413 286.018 62.4968 287.157 61.6504 288.134C60.8171 289.097 59.808 289.852 58.6231 290.399C57.4512 290.933 56.1231 291.2 54.6387 291.2C53.1543 291.2 51.8197 290.933 50.6348 290.399C49.4499 289.852 48.4343 289.097 47.5879 288.134C46.7546 287.157 46.1166 286.018 45.6739 284.716C45.2312 283.413 45.0098 282.001 45.0098 280.477ZM48.6231 280.028V280.477C48.6231 281.532 48.7468 282.528 48.9942 283.466C49.2416 284.39 49.6127 285.21 50.1075 285.927C50.6153 286.643 51.2468 287.209 52.002 287.626C52.7572 288.029 53.6361 288.231 54.6387 288.231C55.6283 288.231 56.4942 288.029 57.2364 287.626C57.9916 287.209 58.6166 286.643 59.1114 285.927C59.6062 285.21 59.9773 284.39 60.2247 283.466C60.4851 282.528 60.6153 281.532 60.6153 280.477V280.028C60.6153 278.986 60.4851 278.003 60.2247 277.079C59.9773 276.141 59.5997 275.315 59.0918 274.598C58.5971 273.869 57.9721 273.296 57.2168 272.88C56.4747 272.463 55.6023 272.255 54.5997 272.255C53.6101 272.255 52.7377 272.463 51.9825 272.88C51.2403 273.296 50.6153 273.869 50.1075 274.598C49.6127 275.315 49.2416 276.141 48.9942 277.079C48.7468 278.003 48.6231 278.986 48.6231 280.028ZM72.3926 274.188V290.809H68.7793V269.677H72.1973L72.3926 274.188ZM71.5332 279.442L70.0293 279.384C70.0424 277.938 70.2572 276.604 70.6739 275.38C71.0905 274.143 71.6765 273.068 72.4317 272.157C73.1869 271.246 74.0853 270.542 75.127 270.048C76.1817 269.54 77.3471 269.286 78.6231 269.286C79.6648 269.286 80.6023 269.429 81.4356 269.716C82.2689 269.989 82.9786 270.432 83.5645 271.044C84.1635 271.656 84.6192 272.45 84.9317 273.427C85.2442 274.39 85.4004 275.568 85.4004 276.962V290.809H81.7676V276.923C81.7676 275.816 81.6049 274.93 81.2793 274.266C80.9538 273.589 80.4786 273.101 79.8536 272.802C79.2286 272.489 78.4603 272.333 77.5489 272.333C76.6504 272.333 75.8301 272.522 75.0879 272.899C74.3588 273.277 73.7273 273.798 73.1934 274.462C72.6726 275.126 72.2624 275.887 71.9629 276.747C71.6765 277.593 71.5332 278.492 71.5332 279.442ZM99.7364 269.677V272.45H88.3106V269.677H99.7364ZM92.1778 264.54H95.7911V285.575C95.7911 286.291 95.9017 286.831 96.1231 287.196C96.3444 287.561 96.6309 287.802 96.9825 287.919C97.334 288.036 97.7116 288.094 98.1153 288.094C98.4148 288.094 98.7273 288.068 99.0528 288.016C99.3913 287.951 99.6452 287.899 99.8145 287.86L99.834 290.809C99.5476 290.9 99.17 290.985 98.7012 291.063C98.2455 291.154 97.6921 291.2 97.0411 291.2C96.1556 291.2 95.3418 291.024 94.5997 290.673C93.8575 290.321 93.265 289.735 92.8223 288.915C92.3926 288.081 92.1778 286.962 92.1778 285.555V264.54ZM116.436 287.196V276.317C116.436 275.484 116.266 274.761 115.928 274.149C115.602 273.524 115.107 273.042 114.443 272.704C113.779 272.365 112.959 272.196 111.982 272.196C111.071 272.196 110.27 272.352 109.58 272.665C108.903 272.977 108.369 273.387 107.979 273.895C107.601 274.403 107.412 274.95 107.412 275.536H103.799C103.799 274.781 103.994 274.032 104.385 273.29C104.775 272.548 105.335 271.877 106.064 271.278C106.807 270.666 107.692 270.184 108.721 269.833C109.762 269.468 110.921 269.286 112.197 269.286C113.734 269.286 115.088 269.546 116.26 270.067C117.445 270.588 118.369 271.376 119.033 272.43C119.71 273.472 120.049 274.781 120.049 276.356V286.2C120.049 286.903 120.107 287.652 120.225 288.446C120.355 289.24 120.544 289.924 120.791 290.497V290.809H117.022C116.839 290.393 116.696 289.839 116.592 289.149C116.488 288.446 116.436 287.795 116.436 287.196ZM117.061 277.997L117.1 280.536H113.447C112.419 280.536 111.501 280.621 110.693 280.79C109.886 280.946 109.209 281.187 108.662 281.512C108.115 281.838 107.699 282.248 107.412 282.743C107.126 283.225 106.982 283.791 106.982 284.442C106.982 285.106 107.132 285.712 107.432 286.259C107.731 286.805 108.18 287.242 108.779 287.567C109.391 287.88 110.14 288.036 111.025 288.036C112.132 288.036 113.109 287.802 113.955 287.333C114.801 286.864 115.472 286.291 115.967 285.614C116.475 284.937 116.748 284.279 116.787 283.641L118.33 285.38C118.239 285.927 117.992 286.532 117.588 287.196C117.184 287.86 116.644 288.498 115.967 289.11C115.303 289.709 114.509 290.21 113.584 290.614C112.673 291.005 111.644 291.2 110.498 291.2C109.066 291.2 107.809 290.92 106.729 290.36C105.661 289.8 104.828 289.052 104.229 288.114C103.643 287.163 103.35 286.102 103.35 284.93C103.35 283.798 103.571 282.802 104.014 281.942C104.456 281.07 105.094 280.347 105.928 279.774C106.761 279.188 107.764 278.746 108.936 278.446C110.107 278.147 111.416 277.997 112.861 277.997H117.061ZM129.326 273.876V290.809H125.693V269.677H129.131L129.326 273.876ZM128.584 279.442L126.904 279.384C126.917 277.938 127.106 276.604 127.471 275.38C127.835 274.143 128.376 273.068 129.092 272.157C129.808 271.246 130.7 270.542 131.768 270.048C132.835 269.54 134.072 269.286 135.479 269.286C136.468 269.286 137.38 269.429 138.213 269.716C139.046 269.989 139.769 270.425 140.381 271.024C140.993 271.623 141.468 272.391 141.807 273.329C142.145 274.266 142.314 275.399 142.314 276.727V290.809H138.701V276.903C138.701 275.796 138.512 274.911 138.135 274.247C137.77 273.583 137.249 273.101 136.572 272.802C135.895 272.489 135.101 272.333 134.189 272.333C133.122 272.333 132.23 272.522 131.514 272.899C130.798 273.277 130.225 273.798 129.795 274.462C129.365 275.126 129.053 275.887 128.857 276.747C128.675 277.593 128.584 278.492 128.584 279.442ZM142.275 277.45L139.854 278.192C139.867 277.033 140.055 275.92 140.42 274.852C140.798 273.785 141.338 272.834 142.041 272.001C142.757 271.167 143.636 270.51 144.678 270.028C145.719 269.533 146.911 269.286 148.252 269.286C149.385 269.286 150.387 269.436 151.26 269.735C152.145 270.035 152.887 270.497 153.486 271.122C154.098 271.734 154.561 272.522 154.873 273.485C155.186 274.449 155.342 275.594 155.342 276.923V290.809H151.709V276.884C151.709 275.699 151.52 274.781 151.143 274.13C150.778 273.466 150.257 273.003 149.58 272.743C148.916 272.469 148.122 272.333 147.197 272.333C146.403 272.333 145.7 272.469 145.088 272.743C144.476 273.016 143.962 273.394 143.545 273.876C143.128 274.344 142.809 274.885 142.588 275.497C142.38 276.109 142.275 276.76 142.275 277.45ZM164.736 269.677V290.809H161.104V269.677H164.736ZM160.83 264.071C160.83 263.485 161.006 262.99 161.357 262.587C161.722 262.183 162.256 261.981 162.959 261.981C163.649 261.981 164.176 262.183 164.541 262.587C164.919 262.99 165.107 263.485 165.107 264.071C165.107 264.631 164.919 265.113 164.541 265.516C164.176 265.907 163.649 266.102 162.959 266.102C162.256 266.102 161.722 265.907 161.357 265.516C161.006 265.113 160.83 264.631 160.83 264.071ZM174.15 274.188V290.809H170.537V269.677H173.955L174.15 274.188ZM173.291 279.442L171.787 279.384C171.8 277.938 172.015 276.604 172.432 275.38C172.848 274.143 173.434 273.068 174.189 272.157C174.945 271.246 175.843 270.542 176.885 270.048C177.939 269.54 179.105 269.286 180.381 269.286C181.423 269.286 182.36 269.429 183.193 269.716C184.027 269.989 184.736 270.432 185.322 271.044C185.921 271.656 186.377 272.45 186.689 273.427C187.002 274.39 187.158 275.568 187.158 276.962V290.809H183.525V276.923C183.525 275.816 183.363 274.93 183.037 274.266C182.712 273.589 182.236 273.101 181.611 272.802C180.986 272.489 180.218 272.333 179.307 272.333C178.408 272.333 177.588 272.522 176.846 272.899C176.117 273.277 175.485 273.798 174.951 274.462C174.43 275.126 174.02 275.887 173.721 276.747C173.434 277.593 173.291 278.492 173.291 279.442ZM205.107 287.196V276.317C205.107 275.484 204.938 274.761 204.6 274.149C204.274 273.524 203.779 273.042 203.115 272.704C202.451 272.365 201.631 272.196 200.654 272.196C199.743 272.196 198.942 272.352 198.252 272.665C197.575 272.977 197.041 273.387 196.65 273.895C196.273 274.403 196.084 274.95 196.084 275.536H192.471C192.471 274.781 192.666 274.032 193.057 273.29C193.447 272.548 194.007 271.877 194.736 271.278C195.479 270.666 196.364 270.184 197.393 269.833C198.434 269.468 199.593 269.286 200.869 269.286C202.406 269.286 203.76 269.546 204.932 270.067C206.117 270.588 207.041 271.376 207.705 272.43C208.382 273.472 208.721 274.781 208.721 276.356V286.2C208.721 286.903 208.779 287.652 208.897 288.446C209.027 289.24 209.216 289.924 209.463 290.497V290.809H205.693C205.511 290.393 205.368 289.839 205.264 289.149C205.16 288.446 205.107 287.795 205.107 287.196ZM205.732 277.997L205.772 280.536H202.119C201.091 280.536 200.173 280.621 199.365 280.79C198.558 280.946 197.881 281.187 197.334 281.512C196.787 281.838 196.37 282.248 196.084 282.743C195.798 283.225 195.654 283.791 195.654 284.442C195.654 285.106 195.804 285.712 196.104 286.259C196.403 286.805 196.852 287.242 197.451 287.567C198.063 287.88 198.812 288.036 199.697 288.036C200.804 288.036 201.781 287.802 202.627 287.333C203.473 286.864 204.144 286.291 204.639 285.614C205.147 284.937 205.42 284.279 205.459 283.641L207.002 285.38C206.911 285.927 206.663 286.532 206.26 287.196C205.856 287.86 205.316 288.498 204.639 289.11C203.975 289.709 203.18 290.21 202.256 290.614C201.344 291.005 200.316 291.2 199.17 291.2C197.738 291.2 196.481 290.92 195.4 290.36C194.333 289.8 193.499 289.052 192.9 288.114C192.314 287.163 192.022 286.102 192.022 284.93C192.022 283.798 192.243 282.802 192.686 281.942C193.128 281.07 193.766 280.347 194.6 279.774C195.433 279.188 196.436 278.746 197.607 278.446C198.779 278.147 200.088 277.997 201.533 277.997H205.732ZM222.861 288.231C223.721 288.231 224.515 288.055 225.244 287.704C225.973 287.352 226.572 286.871 227.041 286.259C227.51 285.634 227.777 284.924 227.842 284.13H231.279C231.214 285.38 230.791 286.545 230.01 287.626C229.242 288.693 228.232 289.559 226.982 290.223C225.732 290.874 224.359 291.2 222.861 291.2C221.273 291.2 219.886 290.92 218.701 290.36C217.529 289.8 216.553 289.032 215.772 288.055C215.003 287.079 214.424 285.959 214.033 284.696C213.656 283.42 213.467 282.072 213.467 280.653V279.833C213.467 278.413 213.656 277.072 214.033 275.809C214.424 274.533 215.003 273.407 215.772 272.43C216.553 271.454 217.529 270.686 218.701 270.126C219.886 269.566 221.273 269.286 222.861 269.286C224.515 269.286 225.96 269.624 227.197 270.302C228.434 270.966 229.404 271.877 230.107 273.036C230.824 274.182 231.214 275.484 231.279 276.942H227.842C227.777 276.07 227.529 275.282 227.1 274.579C226.683 273.876 226.11 273.316 225.381 272.899C224.665 272.469 223.825 272.255 222.861 272.255C221.755 272.255 220.824 272.476 220.068 272.919C219.326 273.348 218.734 273.934 218.291 274.677C217.861 275.406 217.549 276.219 217.354 277.118C217.171 278.003 217.08 278.908 217.08 279.833V280.653C217.08 281.578 217.171 282.489 217.354 283.387C217.536 284.286 217.842 285.1 218.272 285.829C218.714 286.558 219.307 287.144 220.049 287.587C220.804 288.016 221.742 288.231 222.861 288.231ZM239.268 269.677V290.809H235.635V269.677H239.268ZM235.361 264.071C235.361 263.485 235.537 262.99 235.889 262.587C236.253 262.183 236.787 261.981 237.49 261.981C238.18 261.981 238.708 262.183 239.072 262.587C239.45 262.99 239.639 263.485 239.639 264.071C239.639 264.631 239.45 265.113 239.072 265.516C238.708 265.907 238.18 266.102 237.49 266.102C236.787 266.102 236.253 265.907 235.889 265.516C235.537 265.113 235.361 264.631 235.361 264.071ZM244.111 280.477V280.028C244.111 278.505 244.333 277.092 244.775 275.79C245.218 274.475 245.856 273.335 246.689 272.372C247.523 271.395 248.532 270.64 249.717 270.106C250.902 269.559 252.23 269.286 253.701 269.286C255.186 269.286 256.52 269.559 257.705 270.106C258.903 270.64 259.919 271.395 260.752 272.372C261.598 273.335 262.243 274.475 262.686 275.79C263.128 277.092 263.35 278.505 263.35 280.028V280.477C263.35 282.001 263.128 283.413 262.686 284.716C262.243 286.018 261.598 287.157 260.752 288.134C259.919 289.097 258.91 289.852 257.725 290.399C256.553 290.933 255.225 291.2 253.74 291.2C252.256 291.2 250.921 290.933 249.736 290.399C248.551 289.852 247.536 289.097 246.689 288.134C245.856 287.157 245.218 286.018 244.775 284.716C244.333 283.413 244.111 282.001 244.111 280.477ZM247.725 280.028V280.477C247.725 281.532 247.848 282.528 248.096 283.466C248.343 284.39 248.714 285.21 249.209 285.927C249.717 286.643 250.348 287.209 251.104 287.626C251.859 288.029 252.738 288.231 253.74 288.231C254.73 288.231 255.596 288.029 256.338 287.626C257.093 287.209 257.718 286.643 258.213 285.927C258.708 285.21 259.079 284.39 259.326 283.466C259.587 282.528 259.717 281.532 259.717 280.477V280.028C259.717 278.986 259.587 278.003 259.326 277.079C259.079 276.141 258.701 275.315 258.193 274.598C257.699 273.869 257.074 273.296 256.318 272.88C255.576 272.463 254.704 272.255 253.701 272.255C252.712 272.255 251.839 272.463 251.084 272.88C250.342 273.296 249.717 273.869 249.209 274.598C248.714 275.315 248.343 276.141 248.096 277.079C247.848 278.003 247.725 278.986 247.725 280.028ZM251.553 266.552L255.342 260.809H259.697L254.463 266.552H251.553ZM271.494 274.188V290.809H267.881V269.677H271.299L271.494 274.188ZM270.635 279.442L269.131 279.384C269.144 277.938 269.359 276.604 269.775 275.38C270.192 274.143 270.778 273.068 271.533 272.157C272.288 271.246 273.187 270.542 274.229 270.048C275.283 269.54 276.449 269.286 277.725 269.286C278.766 269.286 279.704 269.429 280.537 269.716C281.37 269.989 282.08 270.432 282.666 271.044C283.265 271.656 283.721 272.45 284.033 273.427C284.346 274.39 284.502 275.568 284.502 276.962V290.809H280.869V276.923C280.869 275.816 280.706 274.93 280.381 274.266C280.055 273.589 279.58 273.101 278.955 272.802C278.33 272.489 277.562 272.333 276.65 272.333C275.752 272.333 274.932 272.522 274.189 272.899C273.46 273.277 272.829 273.798 272.295 274.462C271.774 275.126 271.364 275.887 271.064 276.747C270.778 277.593 270.635 278.492 270.635 279.442Z" fill="white"/>
<path d="M395.2 94.8787C404.548 94.8787 413.902 94.8787 423.25 85.5884C432.598 94.8787 441.952 94.8787 444.444 94.8787M508.027 85.5884C517.375 94.8787 526.729 94.8787 536.077 94.8787M415.154 174.143L422.398 157.037C423.688 153.991 426.154 151.581 429.248 150.342L449.804 142.11C452.92 140.839 456.485 141.317 459.147 143.363C461.809 145.408 463.158 148.708 462.683 152.009C462.208 155.309 459.981 158.105 456.848 159.335L438.696 166.544L435.441 174.23M477.021 66.0045V36.0465H501.966V55.1969H477.021M476.502 97.3561V173.691M427.047 134.006C433.414 136.676 440.764 133.734 443.464 127.435C446.163 121.137 443.189 113.866 436.822 111.196C430.454 108.526 423.104 111.468 420.405 117.766C417.706 124.065 420.68 131.336 427.047 134.006ZM461.036 81.5503C461.036 90.1393 468.075 97.1022 476.758 97.1022C485.441 97.1022 492.48 90.1393 492.48 81.5503C492.48 72.9612 485.441 65.9983 476.758 65.9983C468.075 65.9983 461.036 72.9612 461.036 81.5503Z" stroke="#B36774" stroke-width="3" stroke-linecap="round" stroke-linejoin="round"/>
<path d="M151.616 144.318L163.679 130.023C165.641 127.701 168.743 126.427 171.948 126.628L175.45 126.848L184.256 116.431L193.767 123.123L184.972 133.539L186.097 136.58C187.13 139.358 186.571 142.425 184.607 144.748L182.521 147.277M193.767 146.265C190.158 149.273 184.631 149.273 181.023 146.265C177.399 143.256 171.863 143.256 168.24 146.265C164.615 149.274 159.078 149.274 155.453 146.265C151.828 143.256 146.291 143.256 142.666 146.265C139.041 149.274 133.504 149.274 129.879 146.265C126.257 143.265 120.731 143.265 117.108 146.265C113.466 149.282 107.909 149.282 104.267 146.265M182.093 192.791C182.093 193.772 182.964 194.567 184.038 194.567C185.113 194.567 185.984 193.772 185.984 192.791C185.984 191.81 185.113 191.015 184.038 191.015C182.964 191.015 182.093 191.81 182.093 192.791ZM174.31 164.378C174.31 165.359 175.181 166.154 176.256 166.154C177.33 166.154 178.201 165.359 178.201 164.378C178.201 163.397 177.33 162.602 176.256 162.602C175.181 162.602 174.31 163.397 174.31 164.378ZM158.745 181.248C158.745 181.738 159.181 182.136 159.718 182.136C160.255 182.136 160.691 181.738 160.691 181.248C160.691 180.758 160.255 180.36 159.718 180.36C159.181 180.36 158.745 180.758 158.745 181.248ZM149.017 161.714C149.017 162.205 149.452 162.602 149.99 162.602C150.527 162.602 150.962 162.205 150.962 161.714C150.962 161.224 150.527 160.826 149.99 160.826C149.452 160.826 149.017 161.224 149.017 161.714ZM104.267 175.033C106.602 183.049 111.396 184.544 116.633 196.396C116.966 197.142 117.639 197.718 118.475 197.974C119.311 198.231 120.229 198.142 120.988 197.731L141.234 187.463C141.133 177.828 130.226 171.502 127.615 162.602L104.267 175.033Z" stroke="white" stroke-width="3" stroke-linecap="round" stroke-linejoin="round"/>
</svg>
